<mxfile host="app.diagrams.net" agent="Mozilla/5.0 (Macintosh; Intel Mac OS X 10_15_7) AppleWebKit/537.36 (KHTML, like Gecko) Chrome/137.0.0.0 Safari/537.36" version="27.1.4">
  <diagram name="Page-1" id="vhykMWyLpbOxrwrkmsz4">
    <mxGraphModel dx="946" dy="537" grid="1" gridSize="10" guides="1" tooltips="1" connect="1" arrows="1" fold="1" page="1" pageScale="1" pageWidth="827" pageHeight="1169" math="0" shadow="0">
      <root>
        <mxCell id="0" />
        <mxCell id="1" parent="0" />
        <mxCell id="lVntHpEIGGQ0D9R19hEr-1" value="" style="shape=cylinder3;whiteSpace=wrap;html=1;boundedLbl=1;backgroundOutline=1;size=15;" vertex="1" parent="1">
          <mxGeometry x="284" y="50" width="210" height="160" as="geometry" />
        </mxCell>
        <mxCell id="lVntHpEIGGQ0D9R19hEr-5" value="" style="shape=image;verticalLabelPosition=bottom;labelBackgroundColor=default;verticalAlign=top;aspect=fixed;imageAspect=0;image=data:image/png,iVBORw0KGgoAAAANSUhEUgAAAyAAAAECCAYAAAAGi7N8AAAACXBIWXMAAJnKAACZygHjkaQiAAAgAElEQVR4nO3dCfx91bz/8dOsQaOhpDJVKKHMQ6gkcyhDEtelqKu6Sv6GyBRdcW+RhCRCChFSUok0kKFoQuU2KWlSmuv1f6zbKr9+fr/f+X7P2XtN+/V8PH4P93Hv4zr7s9Y657vfe69hNJIkSZIkKQAWA14A/DdwPPBH4HzgbOBo4APA02wtSZIkSRMDFgd2AS5lZkIg2QpYyGaXJEmSNGPAesC5TOZEYFWbW5IkSdJYwGbADUzncmBdm1uSJEnSfAFPB26kG1cAD7W5JUmSJP0LYAXgIrr1i7CWxOaWJEmSdC/AwfRjZ5takiRJ0j2AZwF39hRA/gYsa3NLkiRJunu73bPo1642tSRJkqQQQN5F/y5xLYgkSZI0cMDqHWy5O1NvyF2vJEmSpIyAI0nnHGBhO1ySJEkaIGBz0ntR7rolSZIkJQYsBVyQIYCcaGdLkiRJAwPsRT5PzV2/JEmSpESAdYBbMwaQb9nZkiRJ0gAACwHHk9cdwKNyt4UkSZKknoWtcCnDAXa2JEmS1DBgReAKynAzsEruNpEkSZLUE+BzlOUjdrYkSZLUIOCJce1FSa4FlsvdNpIkSZI6BCwC/Joyvd3OliRJkhoC/CfluhhYPHcbSZIkSepAWOgdpzqVbBs7W5IkSWoAcDjlOzucT5K7rSRJkiRNAdiUerzAzpYkSZIqBSwBnEc9TsjdZpIkSZImBHyQ+jzFDpckSZIqA6wJ3ER9Ds/ddpIkSZJmCTiKOoWDEte0wyVJkqRKAK+mbvvnbkNJkiRJMwAsC1xC3W4GVrbDJUmSpMIB+9KGD+VuS0mSJEkLAKwP3E4brgaWscMlSZKkAgELA6fQlp1zt6skSZKkeQDeSnsuBhazwyVJkqSCAA+MU5ZatHXu9pUkSZI0B+ArtOtMYCE7XJIkSSoAsCFwJ23bLHc7S5IkSYMHLA6cTfuOG3xnS5IkSbkB72Y4npy7vSVJkqTBAlYHbmA4vpG7zSVJkqTBAo5kWMIBi4/I3e6SJEnS4AAvY5j2y932kiRJ0qAASwEXMkw3ASvn7gNJkiRpMICPM2wfzN0HkiRJ0iAA6wC3MmxXAcvk7gtJkiSpaeE0cOCE3Hf/hdgpd39IkiRJTQP+jXKdC2wBLBev9WHAR4Dbevq8sAZm0dx9IkmSJDUJWAm4kjL9HLjPfK574x5DyFbpe0KSJEkaAODzPd3ETyuEiwdnWjT/mzAtLV0vSJIkSQMAPA24gzIdNYPrvx9wY0+fv2maXpAkSZIGIKxziE/6S7Vr5jc4P+6/FyRJkqSBAN5O2Z4zwzrWBe7s6Ro26L8nJEmSpMYBqwDXUq4QKJafRT3H93Qdh/bbE5IkSdIAAN+kbH+YZT2b93QdtwOP6K8nJEmSpMYBz6N8X5tlTQsD5/d0LZ/urzckSZKkhgFLAn+ifLsUtKblH8D9++kRSZIkqWHAh6jDsyeobVngup6uZ49+ekSSJElqFLAmcBPlCwvQl5uwxv16uqargGW67xVJkiSpUeFcC+pw7pQhq6+DFd/WbY9IkiRJjQK2oh5fnbLWo3u6rgvD4Y3d9YokSZLUoLg24lLq8fYp631+j9f2mu56RpIkSWoQ8Cnq8qwp610IOKena/tt+O/vrnckSZKkhgAbxMP0ajHxAvS56v6PHq/xud30jiR1B1gXeAtwIHBqfBAT3n5fDVwE/A74KbAPsDWwmu0vSepUPJzvFOpyTke1LwNc29M1/qiLa5SkaQGLAG8EfjHBb1nYsOP7wKb2hCSpE8D21OeQrrof+GSP17l+V9cpSZMA1gBO7Og37TBgBXtCkjQx4IHxtXtt/rOrbgce0uP0s685PCXlAqwdzyfq0hlh0xJ7VZI0kfAmgTpt2GWXA9/t6TpDsHm4w1NSasBKwPk9/bYdE6bv2quSpFkJN/FxMXdtwnzk+3bZ3cDGPV7vvg5NSan1PL00eLW9KkmaMWBx4GzqdHYfXR2nFfThH8D9HJ6SUgFWAW6kX2H3LN+CSJJmBngP9fpKH/0MbNvjNb/fsdnUgZ1bFvrvRcAm8Y3eBvHfQ4Glcreb0gLeShputCFJmvGOKDdQr5376GdgSeBvPV1z+O9d2vFZP2Ad6hS+838Cfg58NT6E2CKeCbF47nZVt+JuVSnsat9JksYCvkfdntFXNwMf6/G6d3B41q/iALIgtwGnx4PnwpuUlXK3s6YD/DnR2DnMvpIkLRDwcurW+QL0udpnVeDWnq79AmBRh2jdGg0g8/qenQTsBDwod5tr9uLasxROsH8kSfMV5oEDF1K3s/ruYuDwHq//VQ7Rug0kgMwdRk6Ib0YWyd3+Gg9YIuH4ONM+kSTNF7A39fty310cpnj1eP2/BRZymNZrgAFkTmFazy4eQlc2YJnadyWUJDUgLjTta2pRSjslaq9f9ljDxilqUD8GHkDudlWcnuWUwkIBtyQaCz/NXaskqUDhiTvwE9rw9ERt9voeazg6RQ3qhwHkXs4EnuNYKw/wF9I4InetkqQCAf9OO3PRl0k4h/ryHmt5fIo61D0DyL+4M+6e5Va+BQGOI43dc9cqSSoMsCLwV9rw+8Rt98EeazkkZS3qjgFkvsK0xUc41soAvJc0npq7VklSYYAv0I6DE7fdKj3Oow7nLqyRsh51wwCyQFcDT3Gs5RfespJmUwLXAUmS/gl4Upy21IodU/dveFPRYz3/43itjwFkrOuBTXL3k/5vrB5Fv95sO0uS7hGeSgG/oS1PS93FwAY91hMOCrufw7YuBpAZuRHYKHdfDR2wfo9vcU8HFstdoySpIHGv/pbcDiydqS1P6bEuF3BWxgAyq+lYa+bur6EDXh03CuhS2GFrtdy1SZIKAjw4ToNoye8ytudreqzrCmDJXLVp9gwgs3IusLzjLC/gTfGNa1eHqa5tn0qS7gX4Fu35Uq5uDtMMgIt7rO2tuWrT7BlAZu1wx1l+wCPDGURTvA25BtgTuE/uWiRJhQGeR5ve1vCWlucDi+SsTzNnAJnI5o6xMoRpcTFInDiDN+WXAt8G3pLqDCZJUmXCVJ54M9uirHvNA/cHbuqxvi1z1qeZM4BM5DKnYpUnPPgI24HHxeobAS8EngmsG7Yhz319kqQKAB+mTdkWoM/Vvl/sscZf5q5PM2MAmdhejjFJktp7rX4zbTpzVID4VLBPz8ldo8YzgEzsBmAlx5gkSY0Afky7DhoVIs6b7stRuevTeAaQqbjttCRJLQBeS9v+Y1QI4OU91/q43DWqiAByRzhNfBb/XhS3i94WeGecjvlZ4Hjgr5TjSndRkiSpcsCycaeSlj1lVNaizQt6rPXLuWtUEQHk9h6maL4Z+CFwK3m5I5YkSTUD9qNtYQH6UqOCAO/osd5wc7hG7hrVVgCZ6/pXBT4W12Tk8HXHlyRJlQI2iDfoLTtjVJiwnWjPN2+fzF2j2g0gc9TxYOBI0ruhtIcKkiRpBoCFgVNp3xdLHBDA/j3W7G5BBWslgMRaFgLeQ3ovSlGfJEnqELADw7BDiQMHeDRwZ491vyd3jWo/gMxR066ktafj6562Xwp4ILACsITtkgewaOyD8G/lOfpkWfsk+zrXlWNfLNlaXwCLxdpWif/p2+EOAPcFHgo8Ns4WetIcm7ZsFP934d/acXwt0sXnNi/+MF7DMDx5VCjgRz3WfUWLP7YtaDGAxLq+QjonjAYEWBzYEHgvcDhwVjwdfn5nN10bN7s4Bvg0sE3uGmoGLBM2MwFeB3wAOCSMQeB3wF+A22YwZm8ELgJOD1umAwcC7wZeBTwh3PDkrrPiAL4xsGOcWfCT+N24bgF9Eb4flwOnxN+t98fdQNcZFQh4ZNyl8EPx+38mcDVwywJqDP/33wNHA5+P7RN+Q5bLXU8JuGsKcRg32wEfB44AfgVcDNzEZDtPXh5/E74H/BfwRuCphsJ7N/xXGYbbSr4Jj1uf9mm73DVqUAFk2XgzlsI/wpO/DtZibdvRv426a8l7PVF/aVh0D1w/ZXudPOE03W17/vfCUYHiE803AF+IN3sp1kqGG5jzYn/vFm8Ws77RAlbvsK+f2+F1PQzYKd5cT3KzuCDhJvLQeGO6alfXPMv6lo5b9h8A/LmHcfZL4IMxVC80ahywXPitiUHz+7GPUwqbA/08bt6yWe7vdTbAs3qe+lOS344KFufPn9tj/ef7WrA8rQaQWNvbSOeRU15reHXeld902IZLxp3ywtPyrhw54VuXvv1oVIg43eL98Q1FKX8jb4xn8bwvvM0PobDih2QXdPD3cpP4dDlV/4Sb9WOBLcMDge5adoHbnYeb1KtI54/AHsBqo7ampW0YQ9YpBW62FGYgHQy8OMW4KkL8g3I2w3HgqHDxKU6fXpG7Rg0qgCyTcHrnZgUFkHCjsnwHN1hb9nRO0BcmuJ7mA0h8yxPa/MexD0t3WTwgNDxFXbzCt/SPmvB78dqeH9bNRHgTsU0fbwziFLwfZQ6+4U3S3sBKowpx1xlrzwD2iVPQa3FZDIArjloW5w8PyfajOhY6hfmofflF7ho1nAAS6zuINN5SUAAJXjDFtawfvqv0Z68JrqnZABJvVraq/IHc34BPAU+sKIC8fZafHxYA/5SynNbV4cZx4fhBhYXfa+OD0SqmZgHrxXVuV1K36+Man2VGrQmH02U8OCyXJ40qEBN7n56Vu0YNKoC8gjQ+VlgA2XPCp7s7LWAxeVd2meDamgwgwON6Dns5hE0Jdu56x60eAsixs1j/tFeBU2fuFt5UfHSaKXHAvwN/p1zHhTVAowIB9wG2Bk6iPZcCr68lAM5InDc5JLeWvAB9TsAjen4C8v3cNWpQAeRBpPHlwgLISRMsjDyMNF4/9AASb2r3nOGOVbX6e3wrslahAeSWcU94wxSgnneI7NIPZzv1MixATvDQsSthLcrTR4WIi/N3ijfprTsmbIYxql3CJ5Il6WxRaApxZ4Y+n9Y8NneNGkYAiTWmmIP7zcICyM0zfegRFzyHTSJSeeGQAwhwv7iYeCi+X/BOjS8Zcz5WH2ug+nTOTG8UgQdU+Pbthty71cWp6u9pYJrVbF0CPHNU+R7ZXW/jVoPPjyoCbNpze3wpd40aVABJ8Uf2B4UFkBlNd4yfG/aaL3o6aisBBHg48L8MywsKDiD7L2Br3VqfbJ857k1IfOMZzpmoUXhz9ZxR3rPrwo5wQ3QzsMWoRsAnGKapFqjmEH/E+pySVuR8zqEZSAD5ToIaf1JgANl9BotqU+9BHzxsiAEkrn28kGH5U1fb9fYUQP48n8XY4bprduz8diaLU4fCORBUvulBJ1P7JlHRtLU+3FbdYbLAuvHGc4h62xmkLyE09dwme+euUYMJIOGk6L6dVmAAOWbM2phcT3jvO7QAEra1rHA6Txd2reCw3HXmGme1vhmY0d/YeHp5C34z7QGwk4ohtetDJ2tye6kHt85vd5XaE/ekQui6z6jO6XJX9bxAcaqzCtRJPw8hgByYoMaTCgwg18/rYKl4uGCuud83T9g+1QaQeL7HDxieG7s8x6HHAHLPrmzAR2hH2EzmqXO14etoy/tGmQCfYdiumzO8Fwt4E8P161GlgI/33Dbvyl3j0A0kgHw1QY3HFBhAgifM42HQ18jn4gEGkB0Zpi923I59BZDj4n//kxvcleyMu98SAKsCV9OWsB5kzS7H2SzG4+rx84fsrLCT2qhUcRu7oe0WMKfPjSoV5yz3+YN8eY1vh1oykADy3QQ1HlFoALnXYWvADuT12yEFkLjT0DUM0xMqCSDhb9zpDd+nnBvrS73ZRCrZNrUJGwzlLr4A7x+VKjwFYdi2G1UM+FbP7fPm3DUO2UACyK8T1HhIoQHkiLnmLYeThXP60cACyH4M06k9tGVfAUT1r0fIsiA97pbW2luzSXbGeuSoNOHQmHjuw5B1+hQotbCVZ8/tc15Xu6Roov5tOoDEKUdhrmrfPlNoALny7lNsQxghv68OJYAAK8RzC4Zo6y7bMranAUTzs0/X420W4/JLdgtfH5UknvT624F3zC1Fz4+bobjbRJ9elrvGoRpAAAmHiaXwjkIDSLBx2DaRMuw7oACyC8P01z7+7hlANGbM5doR6xG+BeH2XGtx5ilsv+fXhV+NGgC8seQtTDVV37YeQLYnjS0LDiAl2X1AAaS2U6a7smeX7ThHe/oGRBOdat/IRielO2BUAmC1uAXk0JXRIVMKT7MSHFj2zNx1DtEAAshPqWCq5YACyFuGEECA+8dtUFO6Iq7Z+2B8aPRiYJNwanT8z3AD/ypgp3go8OFxgfIdHT8JXaOrdpyrTQ0gWpCD+xh3s3jT3vX36I9x2uyewLbh3A1gvbjuZNW4wdPDgQ2A58WH/kfE34Ecri1ixg/w7UwNUJptR40APtxzWx2Zu8YhajmAxD8KqdagTXXewYACyBYDCSDhRj+VEDqeMcW1LhMeAIUzFcJ5NlNOJ/luV21YYQAJ04B+GU8h/378z9MTrUFLNaX8HOBE4Gjgh8AJwIUZwnZnW3x3OD4Pm3Ih93HAHsBzJzmsdY7rWCT8zmY6e++l3bbq7IvfLEPRpdpg1Ih4cnKfJ9nfWcWhNo1pPIAcShrnd3CtQwkgzxpIAPlQohvCV3R1zXNc+/LAG+JN5mzDyKZdX0/BASQEjk/F61phBg9D3hE3XalF+Jt8fDzHJvydWGQB9S0b37h9PfPZGGuPMolvJ2bzwOvSuEteGD9L93RNr+j5QOlONhnpqthwwu75CYstWRML0OcUf1z6dFDuGoem1QASF17fWcur/wEFkHUGEkC+meB6d+jqesdMJds+TmUc95T7vLt3XGs8gFwSp7jN+gyrsONj/P8t+UDA8Lt5yKQ383Fa0PcyXXvWbf1nsNPglcCngQ1T7f4ZtihOeAbM5Slqml+hH0lUZA1OHzUGeGrPbRbesKyeu84haTGAAA8ELqLwdQ0DDSAPGEgA+VXP1xrmeS/e1fXOYm3n7sD/zueadu7580sIIPuHKWsd1PLQOJ2pNH8GntbR9ufvznD9n5r22qese/35PPg6Edgq10NpYF3gH4n64GE5ClwrzmPTXT47alDYsarnDv547hqHpLUAEubOZth9aN0BBZCL4lO+MFf5tfFJ3trxSXk492Kx+J/hZvVRwFOA1wOfBH4ctmcfSAAJC0j7dExX1zrhU/xN4pz3u6do/WPcNKTKA8gdXa/pBFaON/yl+BmwYsc1vidxDcd3ef0T1vz9eC3XhG3Hw/S7UQESbgv+2hzFhQU0avyE73jT0ae/hznIuescipYCSHzz0feT57n9qaNrLzmAnBx3Tso5v7q2APKXIWzaEYNmCKMfSvBZuQJIeKK9XU81PbGQMyRO6uLNznzehKScjvXXrmuYoObHx2l2S40KEq4nTgHr2ydSF7Z1gqJqs/6oQfEJZ5gD26f/l7vOoWglgITFrwnG5bx8qNEAEtawfbagp3e1BZC+F36ePRqYjAGk12k94RRv8rpk0qmRM6xvjYTTf5hmB6nWAe9P0P7fTllQ2P3gsgRF1eSW1PNzU4rbNfbp8kkW+Gl4ASTeuIdtSHN5TId1lOIbwENGBakwgKQIw08cDUimABIW1i+Z4M3tTeR7u7NRn/VlCFlr9V1PrYDHNnUAN/CZBAXV5pejhsX53n3/YL4pd51DUGMAiQdjvjjOtc25//yZHda0diHbim4+KlCFASTFdqvHpNpJZ8ABJMm5BmEnPfI4JFF9ayasacMUNdWIu9ZvhbUpfboqVTFPiCc26t72HzUuwQ/muUP645pLDQEk7JEOPDmuQzg8rhMqwesaCiBnhp15RoWqMICkWos0mE07MgSQUxPW9jLSuz3ljkXA7xPV9cpUNdWIu8736fut2sIpklTfOyLVqvmn93GhVd+KfBrbkkQBJLyleOeYf2HLxo/Ff2Htwbfj2QOp9i+frQsm3dGpwABycunzpisMIOPOA+jSIUOYspohgGydsLalM0zDOjRVfbHGPRPV1eQGQF0BvpigD5buu4i3JSiiVo8fDUDctq9Pp+WusXWJAkiLOt0VJ2MAOR1YblS4CgPIJ0jrT+EGfdSwxAHk6tShDjiKtDZOXN/TEtX1tpR11QbYO0Ef3L/PAlZOMI+sVuEslMVGAwBsmaA9n5G7zpYZQCZydtebTGQKIFeVtti8oQDyVvL4IfCkUYMSB5CDGz/IOWwTvUji+pZMtGZv15R11YY0Z7Os0WcBX0tQQK1+MRqI8AMGXNhze343d50tM4BMNL+181CcKYC8eFSJCgNIiimqC/KDsG5q1JDEAWTLDPW9LmF9n0tdX6wxxcGL781RWy2AdyTog4f3dfHPms9R87rLZ0YDEs7s6Lnjw1hbJ3edrTKAzNpne+qH1AHkiFFFKgwgKXabmekUu21aeCufMIDckeMw3PDminRenbq+WGPYua1vH8hRWy2oNYDEPwLnJLj4mv37aECAFYAbem7TA3PX2SoDyKzn2S/fQAC5LeXuN0MMIBkWoo9zSZx60duBcw0FkLMy1bc86aycqcZ9E9RmAGk0gOye4MJr97jRwITXuT236a3AarnrbJEBZMbC1r/r9tgPa7e6+82AA8grKPOQ3MPCguBRZRIGkGwPvBIda3Bp4ydxG0DmEDZTiA+KHxAePAEfrS6AhP9C4MYEF16zm1p41T3hTWzf0/L2yl1niwwgM56S0et6icQB5OmjylQaQMI1X0G5wvSsbWvZwjdhANkxY43XJajvqMafvlcdQIBlgUeFE+rjuqBw/tV7gf8CDggPkOLb1WOB4+L3+PT4hv78eKDs1XFDpFw6DyDh1GEt2GC3jY1fhD5dl2NebusMIGOFYP3WBP2QKoCEc1UWGlWmxgASrzvcOJTuMuB9uablFBhANs1Y46UJ6ts7Y31vSVBf8QGEu9aIhQe3rwnXG0PFbxJMZ68vgABb5K6mEvuNBgp4aYL23S13na0xgCxQmA7xxkT9kCqA7DuqUMUBZMmCD9Oc3/SsTUbDDiCrZ6zxvJbPyQiHOw4xgABLAM8FPgz8ONGbrvoDSDght6If0NyS3KwUnOjDK8A+Xdr1+QtDZwBZYPjYJmE/pAogW4wqVGsAidcedqGqzWnA5iW9LUsUQMIGDQtnrPG3CWp8acb6XjGUAALcL77xObKhNxvJA8gnc1dSkceOBgz4zwRtPNiQ1wcDyDxdkfopcMIA8uBRhWoOIPH6D6FOv48BatG+2qawAHJx5hrDNJy+PSFjfU0HkPA9icH9iPhGcaimDyDAY+IORBpvkAvQ5/G2rO9Xi+fmfELVGgPIvzg+x1z4RAHk76NKNRBAlk00vaYvfwRelfONSKIAcmqu+hIGkGxbcLcaQOLvUwjqf0hQX/sBJE6p+XnuKipySmejuWLApxO09Uty19kKA8i9ttndJVe4TRRAzhhVqvYAEmtYLdFJ0H36BbBhn+2UOYD8IEdtiQPIihnrayqAxPvksJPcXxLUNagA8ubcFVTm052N6ooBa8ZtS/v0s9x1tsIA8n++l3PhacIAkvXmaugBZI5+DrtO1e5rYY573+2VIYB8M2VNmQLIIhnrayaAAOuHN2YJ6hlWAAFWAq7MXUFl/q3T0V2xsM94gvau7iCtEg08gISto585KkCiAFLdAYStBZBYy6rAr2hjrdTLU7RZwgDy5VT1ZAogt2eur4kAEt96uDyhpwBy0AL+izVv63U6wisGbJZgkByRu84WDDCA3BHfeDxlVJBEAeSgUaVaCiBzrJf7Dm3YP8X6x0QB5IC+68gcQG7KXF/VAQRYOrwlS1DDMAMI8IwEp1q3ZvAL0OcaQwsB5/Tc5mGMPrqj35XBGlAACbv5vAd4yKhAiQJI1purabQWQOaoa8t4anHtfgbcv4EAsk+fNRQQQLJuRFFzAAGWipuUqI8AErcQS7EPdWtO7mPA1wzYIUG7fz53nbVrOICEczx+CexZw9tJA8gwA0isbQ3gh9Tvd32uC0kUQD7a1/UXEkCuzVxflQEkHih6QoJrH3QA2S33VVfqU10P+NrFpwVX9dzuNwMPyl1rzRoKIFfHp7B7xxuV5UYVMYAMN4DMUeMmwJnULTzAXKHiAPK+Pq59FjUaQMoMIF/s4LqG5OGTbBF4fe6rrtQbuh7wLQA+0foTq9pVFED+BpwVX4EfEg9I3THetFUfQg0gY9un+QAyxyyEHSrfKeu4PnZaShRAduv6umdZowGksAACvKaDaxqaWQeQcHKjJvOYLgd8K8J8+zgVpk/X1fa0e4ABJIyBh83iX3gYssKQ+tUAMrZ9BhFA5qo37LRzMXXao9IA8o6ur3uWNRpACgog4VDaeEZUia6JB4SeFqdwfjWs84sP5z4GvBd4Z3ygsW0MUmHN2YFFBZBEuxa16h/hqVVXA741iXZ62TV3nbVKFUBy11k6A8jY9hlUALkbsASwPXA+9e029/SO28IAMj3XgMxuzH2O/G6Lh4LvB2wXjiAAlp3ie7RrMQEkLq6p7cetJD+fdCAMAbBRgj64JNyg5K61RgaQMhhAxrbPIAPIXCcuvxg4lnr8Olx3h21gAJmeAWTm4+3RCWZwLCh0HAm8suuZAKUFkLBLjCa3b5eDo0XAGQkGmOtwJusb34AUwAAytn0GHUDmBGwAfAW4hfK9rsO6DSDTM4DMfLyFNw6p3Ro2NQo743X1vSk2gABrxZ2ENLnX9zVQWgG8KcEAO6fLp21DYQApgwFkbPsYQP61TR4Y1loAV1KuMzr8jhhApmcAmfmBg9eS1i/C3+Ouvi81BJCwW4Wm0/uAqV2c5hd2Merbi3LXWhsDSBkMIGPbxwCy4HUi28RzOEr0lI6+IwaQ6RlAZjbWtiatg8L3uIvvSRUBJLwaTXARrXMB+swH/UcT9MeJXXxBh8QAUgYDyNj2MYCMb6OFgOeFqWSU5bMdfUcMINMzgMxsrIUpjql8OeXsjewBJCxqqXyf8VKclAKu/CgAABA1SURBVGrQ1A5YNc5v7NtTc9daEwNIGQwgY9vHADK78fQ44DDgTvL7U0c1GUCmZwCZ2Vi7lHQHd95nlFAJAWT/BBcwBPukHDi1i38Q+/at3HXWxABSBgPI2PYxgEw2rtaLT1hz7eZzt4d2UIsBZHoGkPHjbE3SuLPrrapnAnhPtgACPKGAH6NWbJN68NQsfNkS7T//qNy11sIAUgYDyNj2MYBM/0bkRPJ5dQc1GECmZwAZP87CdtcpHDdqdzr8w+e3l3g4NVHdeHSOAVSzuNND3w7IXWctDCBlMICMbR8DSDfjLNxc/Zn0du/g2g0g0zOAjB9nbyeN144yAA7OFUB2TPDBQ1qAvkiOAVSzuFtL38LW0qvkrrUGBpAyGEDGto8BpLuxFrYY/Z/E60O+0sF1G0CmZwAZP84+Q5qZGvcfZRDWLicPIMDKwDUJPngofpZj8NQu3kj8JUH/fCR3rTUwgJTBADK2fQwg3Y+5lwDXk8bxHVyvAWR6BpDx4+wb9O+CUQbAoom+8/8SQA5N8KFD8j85BlAL4uFZfQuHCC2Xu9bSGUDKYAAZ2z4GkH7G3dMSHUb8yw6u1QAyPQPI+HH2Pfp37CgD4Mmk8c8AAjwz0YcOiQvQJ/8SrALckqCP3t7VF7dVBpAyGEDGto8BpL+xt1uC3+JzOrhOA8j0DCDjx9kJ9O8bowyAvcgQQH6a6EOHxBPQyz/o5yJgsS6+uK0ygJTBADK2fQwg/Y29pRJMy5h6yokBpBMGkPHj7Gf075BRYuFeCLiYlAEkbEma6AOHJPxYuwB9ui/DBon6yjdVC+6HdRL0we3TjJUhMICMbR8DSL/j76iefwN+38E1+gZkegaQ8ePsWPr3g1FiwOtJ554A8v6EHzoULkDv5gtxcoK+OhNYqIvrbZEBpAwGkLHtYwDpd/z1fTjxqR1cowFkegaQ8ePsSPp32ij9zndhRkjyAHJMwg8div9OOXhaFQ6nStRfL8hda6kMIGUwgLQVQID/FxZ8jioRzk4q/dA1A0gnDCDjx9nXSXOMwxKjRIB9SeueAJLj0KHWvS7VwGlZnJN4SYL+OiF3raUygJTBANJcALn77e6p8UHL4qOCAT/suW0P6uAafQMyPQPI+HH2SdJ49rTfiRl+b15JevcEkLAdqbr1qBQDZwiAdycanE/KXWuJDCBlMIA0G0Dudk18y/CMUWGAZYC/99y27+7gOg0g0zOAjB9n/0kaX5/2OzGDWjZOtM32fAPIVRk+vPUF6Av3PXCGArgfcGOCfjs8d60lMoCUwQDSfACZe13a7qXspAi8I0HbvrKD6zSATM8AMn6cbUEadwDrT/u9GPPm4ybyuCeAnJPpAlr1074GzFABBybot9uBNXPXWhoDSBkMIIMKIHMKf5/3BDbMsWV4PCMsxZlMD+3gWg0g0zOAjB9na5POheFctGm/G3Nd/5LhoGzgTvK5J4B4Anq3PtnlYNH/jdF1E31Z9re9/+XHym14C2AAGWwAmdN1wHeA7eNvYm9v2sPOgMBbEz0hvbCjazaATM8AMn6cLZxgSuKczgYe38H3I1z3q4A/kd89AWSH3FfSmK2nHSjKdvpo+GP7QNv/Xu1uACmAAWRs+wwhgDCPdSPhfI73As8HVutoyuubgbNI58CO2tQAMj0DyMzG2k9I69awu2r4OzDB9+IhwNuBP1COewLISolesQ7FrAeIZvQlelmi/vuQ/XGvdjeAFMAAMrZ9hhhA5hdKwknNBwMfBt4Sb8w3joe7rhP/hf95I+DlwK7xnI9fx3nnqT2/ozY1gEzPAFLW5jhzCzNBTovb5v4bsAnwRGAt4HFha29gc2Bn4IuJHyTMPoDExgwXqumF13IuQO9BOFk+zofsW9iUYZk+aqiRAaQMBpCx7WMAqVPYZn2Rjr4jBpDpGUBmNtbW66Cth+xeAWS1ePCJpnNiFz+kmu+XPjypS2Fn++CeNvcNSAEMIGPbxwBSpw93+B0xgEzPADLz8VbCWor6A0hszHfmvqIGfKKrH1PN8wu/fNzmuG8X59hxpkQGkDIYQMa2jwGkPuEMspU6/I4YQDrok676Y8I+fAX9+0BH17pbgmsdTABZNM4B1eS26mJga4Ff+s8kGqBuJmAAKYYBZGz7GEDq866OvyMGkOkZQGa3YUOuczTaCiCxQZ8Yz0PQZNbq8gdV8/zSr5VoS95wGNhCQ+8D34CUwQAytn0MIHU5D1iq4++IAWR6BpDZjbl9aNOFwMrA8ckCSGzQcECJJtuj3QXoCQDHJBqgm40GzgBSBgPI2PYxgNTjtrBbTw/fEQPI9Awgs38LEqYStnYv+5hY32tTB5ClgAt6+tCWndDR76jGf+lfmKhPjxt6ZxhAymAAGds+BpB67NrTd8QAMj0DyOzHXThjoxW3AM+Z69T0q5MFkPih4VAjzc7eU/x2avan9J6baIB2/qSuJgaQMhhAxraPAaQO+/X4HTGATM8AMtkJ431NVUrpjnmtfQU+nTSAxA/9Rg8f2rLXzHbganLAjon69RtD7icDSBkMIGPbxwBSvi/3OU3ZANIJA8hkYy8cZXE5dU+L3Go+tT0+RwBZuadXL61ac5KBq8kA90009zJsyvCIofaTAaQMBpCx7WMAKds+fa+RNIB0wgAy+fjbINExAX1Mu3r5mNp+lTSAxA99c8cf2qpwI+wC9MQSbpjQ27SB0hlAymAAGds+BpAyhQOO35DoO+IUrOkZQKYbg88FbqCue9dNZlDX9jkCSJhrf1zHH9yi46cZtJpMGMRx3mLfwl7fKw+xnwwgZTCAjG0fA0h5TgrjNtFXxADSDQPI9OMwHGdxBeX71UxndwDLxYcJ6QLIHOcueNjKgv3XtINWkwG+RxqdnJ5aGwNIGQwgzQWQQ2jXxcC2qWcF+AakEwaQ7h6Onka5PgUsMcuavpI8gMQPfl+HH9yiV00ySDW98PowUR9fBSwztD4zgJTBANJWAInX/Ji4NiL8trTgMmBn4D5dttMs2tMpWNMzgHQ3HhcDPgzcSjl+A2w0YT3PzhVAwo/77zv88NYMdpFyCeKp5SnsOBoYA0gZDCDtBZC5blQ2Aw6sMIyEKbBHhUWsoY4+2mcW7WgAmZ4BpPtxuSbwLfK/lXzDNG8l45KMPyYPIPHDn5xovn1twiKehSbtVE0P2C5RX1+U+49sagaQMhhA2g0gc9WxCPCUOOvgZ3GHmtKEueBHxmlWq44KYQDphAGkv/H5yPjG8wbSuDlOUd+yq/sW4F1ZAkj88M909OEtcQF6ZsDSHS+QWpB57pXdKmDZ+APW578tctdZybbTfffDBqNKxcPA+m6fDTPUtUQMJDvFOdinJ95l507ggngu2C6hDcLpyKMCAaskGANrZ67xuT3Xt3nm+h6coA/XyVzj8uHcOODQjo+6CC8IzojrO14NrNDDta/YUR/Mfjp7XAl/aYcN1oKPd93Jmr2EJ5GGOZS+8ZKURZwKsUYMA68Fdo1bkh8S30ycEHe4OT/+uzTe6Mz578L4fzsPOCU+Kf0SsHcMGpsD6+ZazyEN6Lu8VniwCewZHzKEN59/iMH/7u/rX+L39Yz4EOJo4AvA7sDrgGeG+/NR6+JcT/2TC9ALEP/wprJp7nolSZIGBTjCBHIPF6CX8RQhPC1I5ce5a5YkSRqUOE/vOkMI1zgdJz/g+RnGYrXz5SVJkqoE7GAA4bjc/TB08cCfHOuSDs1duyRJ0qDEXUdOHngI2St3PwxV3PHknXEb5BxuBx6Wux0kSZIGJe6SUdIpj6m9MncfDGydx/pxf/xfxO0hc/tE7naRJEkanHjU/FDN/jAVzWZsLQW8GDgAuITyXDHNyaKSJEmaQNgnPO4lPjRhb2bPg+hng4Pt4r70N1I+F6NLkiSlBjyrkCkxKR2bvKEbFU4mjes5TqpwHL0xd/tJkiQNEnAgw/Kx3G1eK2Bp4GXxJM9wwmfN3p+7PSVJkgYJWDHOiR+KLXO3eU2ANeLWzUcDN9GOPXO3rSRJ0mABWzEcD83d3hVs07wBsAdweoVTq2bqP3K3tSRJ0qABR9K+q1yAPnbXqssYhpdm+JpJkiTpbsBDgBtomwvQ730S+U6hTYBbGJbwVmd1v/2SJEmZAbvQtsHO+wcWmWtq1ZCdkrs/JEmS9M+b1JZvTrcYUkcDywOvBg6J0890l51y940kSZIi4LHArY3eqT6k9Y4GHgZsGw8EHNrUqpk4PxzCmbufJEmSNAfg47Tnby0uQAcWBZ4DfAL4Q+5GrsDmuftMkiRJ894VKTwpbskxjZ3dsiXwZeCa3A1bkb1y950kSZLmA3gebal6ATrwaGA34KfA7bkbs0IHt/gGTJIkqSnAV2nHy0f1bQjwDOBjwDm5G69it8advxbO3aeSJEkaA3hAXDvRguIXoAP3B94AHA78PXeDNeAnwONy96skSZJmId4Q1+7KUjsdWA94dzibArgjd0M14EJgH+AJuftWkiRJEwjz5uNp2TU7upTOD1vAApvEqVXn5W6YBtwRz67ZIx606DoPSZKk2gGPAG6kXh8uYGrVNsBhwHW5G6MB/4jnnITzTh6Us28lSZLUkzhNqFYvSz0wgHWAdwInObWqE38GDgBeDCyRuj8lSZKU58C731Cn1RO0z5JxalVYf3BR7oIb4NQqSZKkoQOeXOHT/Ot7bI8HA9vF6UA1T1ErxfXAN+PGBw/oq98kSZJUEWBf6nJZh7UvDDwR+CDwa+DO3MU1smvVp4BNnVolSZKkfwHct7IpRiEkrDhpVwJLhzUkwBeAv+QupgHhDdrJwLuAx/gVkyRJ0ljAS6jLu2bTrcAawPbAD4Gbcl98A5xaJUmSpOnE07prEULEhmOmVj0V2BM4I/fFNsKpVZIkSeoOsApwDfW4FfgosDawGLAqsAXwJeCvuS+uAU6tkiRJUr+At+S+61VWHggoSZKkdOLUpZ8ZAgbFAwElSZKUT5zS5ELtdnkgoCRJksoC7JH7LlmdcmqVJEmSygUsDpxlCKiaU6skSZJUD+CZngxeFadWSZIkqW7AAbnvqrVATq2SJElSO4DlgEsMAUVxapUkSZLaBWyZ+4574JxaJUmSpGEBvpP7LnxgnFolSZKk4QJWA/6e+668cU6tkiRJku4G7JT7Dr0xTq2SJEmS5gdYGDg591175ZxaJUmSJM0U8Bjg1tx38ZVxapUkSZI0KeCjue/oC+fUKkmSJKkrwJLAH3Pf5RfGqVWSJElSX4BnA3cybE6tkiRJklIBvsSwOLVKkiRJygVYCbiCtjm1SpIkSSoFsDXtcWqVJEmSVCrgGOrm1CpJkiSpFsAawA3UxalVkiRJUq2A3SifU6skSZKkFgCLAr+iLE6tkiRJkloFPBa4LXPocGqVJEmSNBTA+zKEDqdWSZIkSUMELAwclWBq1SnAu4H1ctcsSZIkKSNgCeDbHYcOp1ZJkiRJWuCi9D2AW6ecWvVp4Hkh1NjWkiRJkhYoTJECDovTpsZxapUkSZKk6QGrAdsBhwKnAucD5wE/B/YDtgEeYFtLkiRJkiRJkjRqx/8H9XSGr60NriYAAAAASUVORK5CYII=;" vertex="1" parent="1">
          <mxGeometry x="307" y="270" width="155.03" height="50" as="geometry" />
        </mxCell>
        <mxCell id="lVntHpEIGGQ0D9R19hEr-6" value="" style="shape=image;verticalLabelPosition=bottom;labelBackgroundColor=default;verticalAlign=top;aspect=fixed;imageAspect=0;image=data:image/png,iVBORw0KGgoAAAANSUhEUgAAAyAAAADGCAYAAAAqheRqAAAACXBIWXMAAJnKAACZygHjkaQiAAAgAElEQVR4nO3dCdh31bj48V+DpKIylDKnDFGoKIUGEimSSqbMHQ4NKEWOinNIKBLpOCE6UanMCQ2ElEo6/zQQCZW5QZrf7/9atV49/TzP++y99rD28P1c13Od4ep99lpr79/v2ffe677vyUSSOgpYDdgDOAm4FLgBOB94M7BY7vFJkiRJ6jlgcWBb4Acs2lEGIZIkSZKSAc8HLqK457jckiRJkgoDlgK2B06jvENcakmSJElFtlk9Ffgg8AfSfcOlliRJkvRPwBLASsBGwK7AkcBV1OP7LrUkSZI0QMC9gDWBjYEdYiWq/YFPAMcCJwOnA+cAFwO/Bq6hWafkXhdJkiRJ1d9YrBPfVnwy3OQDVwAL6J4vebIlSZKkngEeBewJfL2FtxZ1+mjutZMkSZJUAPCQ2OTvXPprd0+2JEmS1GHA04GvdnRLVVmb515PSZIkSVNCx3BgG+BHDMsqnmxJkiSpQ4B1Q7lahuf3uddWkiRJUgSsCnxuIFutZnO8J1uSJEnqAGA74M8M256511mSJEkaNWAF4CjGYaPc6y1JkiSNFvCE2H18DC4HFs+95pIkSdIoAVsB1zIe78m95pIkSdIoAe8ecKL5bMJcV8+97pIkSdIYe3sczPgck3vtJUmSpFEBlgCOYHxu8e2HJEmS1H7wcTTj9FEvNkmSJKndbVeHM06XAffxYpMkSZJaAhzAOIWtVxt4oUmSJEktAd7CeO3uhSZJkiS1BNgCuI1xMu9DkiRJagvwaOBvjNORIe/Fq02SJElqAbACcCnj9IlQ8csLTZIkSWoJcDzjdIAXmSRJktQiYBfG5wbg5V5okiRJUouA9YCbGJdfAGt7oUmSJEktApYBLmFcvgAs74UmSZIktQz4GONxHbCzF5kkSZKUAfBMYAHjcArwCC80SZIkKQNgOeA3jCPR/N/t7yFJkiRlBBzE8F0IrOWFJkmSJGUUqj8BtzJsnwsJ9l5okiRJUkah2zfwE4brr8A2XmSSJElSBwC7MVznA4/MvcaSJEmS7gw+VgGuYZiOBpb1REuSJEkdAZzA8IRclr1yr60kSZKkGYCtGJ7rged4oiVJkqQOAZYCLmVY/gQ8OffaSpIkSZoCvJ1h+RuwridakiRJ6hhgZeBahrXtyjcfkiRJUhcBRzActwMvyL2mkiRJkmYRtinFm/ah2McTLUmSJHUQsBjwfYbjB6GLe+51lSRJkjQLYEeGlfexmidakiRJ6iBgGeByhmPv3GsqSZIkaQ7A+xiO3wL39GRLkiRJHQSsDtzEcLwj95pKkiRJmgPwDYYjBFIP8GRLkiRJHQRszbCcmHtNJUmSJM0i5EkAlzAsL/ZkS5IkSR0EvIthuRFYNve6SpIkSZoCPAy4gWE5yRMtSZIkdRDwFYZn19zrKkmSJGkK8CKG6VGebEmSJKlDgPsAv2N4rsy9tpIkSZKmAIcyTEd7siVJkqQOAZ4M3MYwvTH3+kqSJEmKgCWB8xiuNT3ZkiRJUkcAezJcfwIWy73GkiRJku4MPlYH/s5wHe+JliRJkjoAWAL4IcO2e+51ltR/wPLAquF7M/dYJEnqLWAfhm/93OssqdelycP35EUzvlNuAU4BdgAWzz1GSZJ6A3gScDPDFm4U7jXpCWAL4PASPwcNIb8FWA74ZMm5r5N73Bo24Bmhh9A83zGnAivlHqvuOF8HlfwOaeLnEOAAYF9gL2AX4AXAusAD+3qegKd0YG0Pn+Pn4LjmB8Q13x3YEXg68Mg+3QNIgxdv+GY+0Ruqcyc9AhyXMMetJj0X/2CU9b7c49ZwAU8Dbip4LZ4f3pTkHvPYAX+m+8I19f+AzwFvATYG7j3pOOCl9L8YzSkxWNnehwZSvi+T8OU3Bof15SILbzLil2RZp076n4d0WcK8f5x77BomYFngdyWvx0Nzj3vsehKAzCb03zoH2C++KencW+0BBCDTFgA/AfYAHpR7faVRAN7AeLxm0hPAEyvM88mTnopPo1L/aK+Qe/wansQ3cmG75/1zj33MehyATPsl8E5glUlHDDAAmf7shoey9guTGvwSWQe4kfFYqy9XE/DWCvM8atJTwJkV5v383OPX8ADfS7weX5J77GM2oABkoVuBE0MuUgfWdsgByMz1PqgPW+KkXglPU4ArGI8bQof3SU8AX6v4BOehk54BNqp4jg/OPQcND3B14vW4d+6xj9kAA5CZvpPzTfdIApCFLgEel2utpSHuaQ57TMfk+5OeCIEScG3F+R446RnghIpz/lnuOWh4gL8kXo975R77mBUIQG6O+WZN/4QA9q/A7dSft3BcjmpaBQOQE2IVqrZ/9osVsD4cq2J9MfY3+12Fc3ANsF7b6ywNSqhTX8ONXh99cNITwAY1zDcEMMtPegJ4RMzjqPoHeeXcc9GwAD9NvB53zD32MSsQgPy/TBUnHxeqFcaSvEfGCpThuytVCJBf3sEA5A2TjgkleIFnAu8Fziq5zuF6ekzuOUi9FCsrHco47TDpiZhwOKqu7zVel705z+qHUOI5cf94b/s8DEEXA5C5APcNQUR8OBi2C6c4PgQ4LY23lwHINGDtkg9kzwOW+pdfJGnR4mvJsXpYX66PuL+3Dpf3Ie8FWBG4fmylltUPwKrAdSWvwyNzj3vs+hSAzPKW5M3ApQnff+e3kf83lABkIeBFJbY9/8c//6Gk+QH/yXj9oS/XSHi6UuEJWC/fCNT4xie4JPd8NDzAi0vsH/+NJXjz62sAMrVdejvgVyW/A69uOl9haAHIjK3Pfy8wr7/1aXuzlBWwP+P2tb5cgsAmNc/9J5PuB1xX1jznB+eel4YnlHku0Bz07D5WoBuivgcgCwFLx4c0oWt6mbyQtRsc0+ACkAB4VcH13eOOfyBpkTkfoRLE2L1r5MHi0yb9/8IvY6fc89IwAfcB3gKcEqvq/CUmEX8hbuNYPPcYNawAZKGYvP5/Jb4H/wg8tqGxDDUAWaxgL6of5x6r1PUny+GPouDZk54AzmjghJ046ai4Z7lun8k9L0l5DS0AmZEfUqZH1K9DgnsD4xhkADJju+V8QtWyVe/4B5LuEvYfA6eV+JIasrBve8U+XB/AMrE2fRNr0LnygSEwpBlX5J6bpLyGGIAEwBLAp0t8H349PNmveQxDDkCWBm4sML/n5x6r1CnAWglJa0N2waQngOc0uA6HTjoGOLnB+a6ee36S8hlqADIjQf3oEt+He9Z8/MEGIAFweoH57XPHfyzpjg/NK2osZzoUn+zLtQF8oMF1CJW17jfpCODxFZtvzWfn3HOUlM+QA5AZ26xPLfh9GN6sP7rGYw89APl4gfl9Ovc4peyAFYCjCn4RjU2rHWKrCBWrGl6Ld046IuRpNDzXL+Seo6R8hh6ABMADYtndIr5Z43GHHoDsVWB+x+cep5QVsBVwVcEvoDF6RI+CyNsaXovwh2rpDsx15YJ7bKv4Q937niX1xxgCkBnloYuqJW9hBAHIvxeY37dzj1PKAlgF+FyJL54x+n1fLk9gm5bW5FUjaor5+EnHxODrhaGbbnwL9D3g58BlsaTrX2f8hP/7QuBbwBHxqdzGwLK559HhffFrA28C/hf4IXBx7N0R1vPyWHXtK8D7ga2H2lAMuDewOfD2sA013CyFfLh4nf1x6jr7a+y6HQqXHAnsG/PRer02YwlAAuDzBb8Tz6/peEMPQF5bYH6n5h6nlKMCxm7AdQW/cMbsmL5cnsBHW1qTC3K+GYiVvua7MZir+2xZu+aa51Rd+Y3i+f0F9bg11KGP/SgKlYKMN5bnlPz5Tk1r8L2EY3+qxO9/cAzoQsnRssKbuGPDDfs8xzgmYQ6t5iGFSncxeDivprept8eAbR/g4QXH8PaEdTqniZKmIwtAHgT8o+B53byG4w09AHnrkBocS5UBzwJ+VvBLRrBLXy67kg2mFvpMvEnoTV+Ugq+2p4Wn2Af0qf9JfAL91sSb4jLC+T8J2HCe8ZyV8Lv/WNNaXJtw7O8XLDf+iRiQVfHb+YLyxM/nfnWs3zzjWhJ4SQv5YwviG5LN5hnPx7qyVXZMAUgAHFRwrU+u4VhDD0D2LzC/z+Yep9Q44InAdwt+ueguT+zD5QmslFgRasO4naSskzNukQldo8t6HbBl4luTJTJUptkbuIb2fWuubWdDC0DCzU3cOlSHjxeYQ+cCEGDHuK2sbSEQWWeOMRmAZBLfBBYJxhdUDfhGEIB8vsD89s89TqkxwJoxz6Pp5OQhCvvnF+/D5RlvJFLK6i4VcwJSPKEneS5hv/q9gPskfg7Wa3F+m8a99DmFLUW7Tz/RH0oAEpuElWnCVsuWlC4FIMAaBfsUNOkW4B3TAb4BSF7ACQXP39srHmfoAcivCsxv29zjlGoHPDY2GUrZXqM7ndCXSxM4vMpbjMSby89kmOcZVW7i4t72st7eUl7Wezr2ef3qzIpnQwhAYgJ/3VtQw9iW6ksAEm/8upT/992Z+TMGIHkBzy143s6ueJzBBiDAwwq+Rao9b0nKBnhaTIj0jce48j9+UaWnR9wDXlZoTLVKi3NcL2GMNwEPnPE7PpLwO05qIan+G3RTqHy0zBACkFim+lzq98WCc8gagMRiBil5UG0IBRFWjON0C1ZG8a34tQVvoB9S4ThDDkD+q8g1n3ucUl1fGNvHL3ENuATrbMIfgcT5bTiViPqbhN/xXy3OM1QRKutulZCAF6VuVWtoTmFb2Pfptq/Hm9feBiAxyDubZry06wFIzJ1KeUvaprPj9jgDkMyA4wqes5dUOMYgAxDufPvx9wJza7XCndREB9O9YgUW1euPfWlCF/py1HFTDbwt4feEJN7lWvpST6lUtPYsn5mUZP2nNTCne8Q3DH2we88DkMNoLo9hxR4EIB+iH0KQZACSGfD6gufrYxWOMbgAhDsfdBR5EBwe9t0z93ilUuKTyE1iTf6iNbtV3rF9uTTjtVC5ilUs+5pSeelNLczx4Lq2TiVW0Xp3A3P6LPW7KVYY+mAMTMN+7qcAT41N5V4VmzieVDIPIPzeq/sYgMTqZylBZxGF+5zkCkASy1bP5/rQwyBuNXlZKMsNrBu3AIcGhDsDB8a3e+HaKSO17LRleGsSCowUXPNzKxxjUAEIdz7cOr3NbvJSm02CwtuOXxa8wFXNG/tyaSe+AXtnxTrwM13WZKnauE3pmrp6lSRuRTmt5jntRL1OAV5cpsN53Hb33FisomofjE4GIGE9gKtK/JtQgeyoEHDGm+iQG/VqYI94Q31kLGQQ3nyUyhPLEYDEG8myAcBcbo1bc7YIb+9KPhXeMZZ4bioQDAxA6i2KEd6SF8kDXHzMAQh3bm98OXBlwev0wNxjlop+cb88VgnpUnWcMXhUHy7RMM7E+W24iDrwC2+uytimwTnumTCe/5trC138TJV188Jk7Jq2k6XcUM/mB+HtRg1jeni8uV4wsAAkPLSZzyVx+2HhhNoY2Gw1s8BB1wKQsMUj8Ziz+VId34mxH1VT2w4NQGoUu8sX8ZAxBiDc+Z25R8my6Yf0ZWu3Rig+eXhW7N3RpVKJY3L5pCdiM7Vak6pDVZ+E33lGQ/O7R2Jy/GsaSNp/VsZk+mm3xLyMxRvoQ/J7hhGAnD9PJ+tfxeIdrfT6yRCApOR0zdaIs/ZeBcAr4jauOhmA1HuOji+47k8fWgDCnW+HV4xBxuOB9YEXhpLs8d4sPLQoI3wPbZdjLlKRV3hh7+xHgT+UvLBVv8P7cskm3sye3EC522CDBuYX9peX9YeZ/Svm+L2X56j4FXMxqr5lCNvRNqk6lkWMceXEhPOuBSBzWRC/a+9Vx9i6GIAA96uhy3sI0B5d/0rcrUluysOFuRiA5Mm726nBAKTvwkPkD7dZrl4qBHhcrMte5xNHVbddjwoSXF1X/sfU704pDXtMA3M8u4mEceDzCb/3zBrmE0raVvH3ubbPNZB38yOGF4DcXLRsbs8DkH0rrlPIK3t4/asw63bElIcBszEAqffchKf9Reya+PuHGoDcGPOd3hR6D9V5TqQ6go79Su4bVHtCA8f79uEyDyVmE+c47w1syOlIXLvVat4OVFZIuF25wO8OCcYpSbj3qTCfNSrmcoUn9zukHj+xqksoMDCUACScv63qGE+XA5DYF6poQuxsQnXFdZpZhVnH+/iazq8BSL3n5c0F1/0dib9/SAHIn+NDrReWKQQitRV0/AdwQe5PiZp/yt2WmAPQSFO9uC0wpVztwTXO7+tNbZ8DHkOa5BvYWEWpiv9OPXaFMW8QA8shBCCvq2MsPQhAtqu4TklPtKsAXkl1BiD1npPXFFz39yb+/iEFIDP9JlYW3KnKAyupjjcdP7/bpamuq6XxVxuAr9ad/1FD/4Dr6njtHKt73Z7whmDNEtvXUvKtPlxhTpdVbIyZ5XV+Yg+Wf467IwFI7dsDOxyApBSRWOicJktqzzPuqtWxDEDqPR+hBHVj34kDDkCmt8x+qs6dAdKiEslDTscv7nYJqk826lG1tFChpvb8j6ky0H9KOMaeNcwvpVfHN0oeI5QWLeunFcqPVlF5TVPFhOaUPixdCUBCMvb96hhH1wOQWHq3SvXE5za3AoU+I1UKNBiA1Hs+QtPSIg5I/P1jCEBmVi18f9uFLzRg8cv+ecD/JN6oqXv7OJec9EAsC5iiVM+I2DW7rN8V2eY1T+5B2IfeaJlcYLeEY4QbpPu3tF1uoX/kTmZMbFDZlQBk90kHtBSAbFhhnS7O3aMgvKGtMH4DkHrPxRsLrvv+DQYgb43lcNv+WSm8tQBWB9YFNo9b0vaL26uuSLxGz2/iOtVIxAZUoXb8F2ouDan8Pj3piZD411T+x9RxVopVPcp6WYW57Vtn48FFHOdJtFQlreK2mKMmmVXImckdgIS3hMtNxhOAhBu2VHs3N/vC439RhfEbgORpAPvOofUBKSL2kwp5Ht8smSd3VdGtwtLCrShbxwY0dTdPUndkq5DT0n7pbyUe69MJx/pZytPU+FYxfEGX9aoWt7F9POFYVarelZ5bE4ALexiAlD5XPQ9AjiLdes3NvtQDvpS3n4EBSJ7cr93HGIDMFN+UHFEibzG0Xlj1br9EmnFB3TdGt1+LpT01bNfP17yuK2KZzZDcVtY7KpTJTNmbvWnCsV7fROPBRRzvGwnHuygh0An9J1I13o+hCOCQHgYgjTVs7GgAcmbiOl2TK/l8GnBK4hwMQOo9D8c12TdrSAHIVNXAXxZctx905TOnDgh7u2cEHSFpSOPxhUlPABu3kf9Rw97sr5U8xmKJT9nfVWFee5PmQSWbraX6zaQjgJf3LAD5R5VcpJ4GICmNSUsXcGgS8L7EORiA1HseQkW0Ip6c+PsHF4AEMYekaCPf3e74RxonYBVgl3jBVGkSpn578aQnYiJc4/kfU8d8dsIxw1uTx5Y4RijokHKTWTopfMYxNyLNy0scYz3SfW/SEcBTehaAnDHpkJYCkNsGsFXt1YlzMACp7xwsWSL37wGJxxhkABKE/h/AeQUL39grZExihLrwTUfojqtxC1vs7j3piRJPVyrnf0wdN1TwaKQxYPz9pyb8/sNq2M4WgrOyjihxjKeT7sRJR4Q9yz0LQD41GVEAErYhki6pmVwTYsWhFAYg9fYxK+JvqZXThhyABMAaBXOG33bHP9BwAcu7vUpz+MqkXwURbmor/6OGJ5NhrCsX+N1rJ+SZlHrDsohjn9bk1ihgi4Tf37mb6PhUr08ByD6TcQUg4cFaqt06to8+hQFIfedg54JrflKFYww6AAlChbACc7z4jv9YwxKavsyoXpXylFPj0IkqQw3fzD61hmOHClVXJhx734aq95TKMVnEsfcnTaHutiEZn3SfnHRE6EXSswDkzZNxBSChglSqzqxVhV4mBiDtJ6C/u8IxxhCALBcboc6n8oM0dUC8SXoBcIxBhwq4uQtdkosKXWfbzv+YOv4+Ccf/46I6wIaE7sQqUZvVNKdnkeZ1DeZOLHTcpFtbCvoUgLx2Mq4AZLEKncRL5Zo0CdgmcQ4GIPXlf/yl4JpvXuE4gw9AgvAWu09vIFUSsHh8yvg/BaNNaaEv9ekDB5ydI/9jqjx1Sgng1y/idx6Y8PsuqKtrc9zWlhIA/W/B3/9Y0p026ffWmJwByKsn40tCv440H5t0RAgcE+dgAFLP+m9ZcL2vX9SDpQLHGUsAsmWBeX4+9ziV1olyL+Cygh8YadrzepbHdFuO/I+pcXw8YQwXhwcFs/yueyc2A9yp5jn9OGEMVxcJgmKAk/pk+sJJRwDPTxi/AUi7AUjKMYJjJh0Rvq8S52AAUs/6f7Hgeh9d8ThjCUDuX2CeZ+Uep4rvQ34dcHqFP+oSMZ9hyb588OLWwiz5H1PjWC0xEPqXYC900U34Pb+vu79D4luYYM2Cvz+luzuxH1EnGmSGfisJ4zcAaTcA+Qr9D3SPTpyDAUj1tV+5RPndbSseaxQBSBD/Zi3KL+/4D9XZvI5tgRPsSq4afWDSI8BHcuZ/TI3lxISxnDpLh/CUt5fvbGA+oVhFY8m7iZW2Ftpo0gGxbHlZBiDtBiAfIE3ogbXipAOAXyXOwQCkvRzDP1fZfjXCAOTceeZ5Te4xavakxwNiEqtUt15Vnoh5D9nyP2rqbbHOjN+xQ2JAVXvRgFjCNKUR6fENd3cO3jfpRkXBlEqCBiDtBiCpCdzBSxu5eMqNf80K4zcAqZ7fVzTX6j01nOsxBSDfnmeeC/q0G2PoCeXbxSeGbrFSU86c9AiwUuLn4R0Njiklb+KoGf/+zC51bAZ+ljCekL+yRIHfvRXpLpstf6ZNicFiYADSbgASttCkqqWsdaaS2IEBSDu5fTekdj8fcQDygwJzrX2ngsoFHlsXbF8vVbVznz6cwIu7kP9Rw5huicUjNkr4tyEAe0yD8zmUim91FvG7711ib/VsnjvJKObcpTAAaTEAicf5aeK5uq2Jm/gS416qwF75RTEASV/79Urk9R1S0/keUwBy4TzzvD33GEcp1i5/GXBRwYtfquofoaLUpEdCQ7qu5H/UkMPxgZjP1amO9RWCvD0aThAmll+upexwi9vtAgOQ9gOQlF49Cx1R+wVUfNxvohoDkLR1X6bE9t4/17UFdiwBCHCPArnLN+Qe5+gAaxd8NSXV6ROTngEuTZjnyS2M660J47ousYrWpg3PZRXSfLPg7w8PWqqotfRwiT+eVd5KG4C0H4A8qsL25fC5XL/2C6lYqdKquZ4GIGlr/+kcOwdGFICsV2Cel+Ye52jEiHu/xOZfUhWNbuNpQuwUTpfyP6a2Fl3TwiX5s6bnEufzi4SxhYZc9yhYze8PFdYgNFl9eBvrUNOe/MAApOUApGDS66L8PHyua72Q5t8FcRzVGYCUX/tdSqzvmXXmoo0oAHlPgXl+Nfc4RyH2MvhtiYteqtOXJz0DvLJr+R9T4/tQC5foy1uayxGJ49uwpRv6sFXiPs2vxB1jfWFiZbCZDEDyBCDPq3jevtpWVZ5QVpt6GICUW/dXlfh8/7Xu9R1DAMKdeU1X9KHS4aCFZlrARwte7FJTnjbpGeCzXcv/mBrfg2NyeVN+3+Jcwh/lFO8qsdUkpfP7dD7IfRteh60L7FsuwgCkWhntD1Uo6nJOxXN3XNOfu7iFs65qlwYgxdf9jSWCj3B+tmrg3I8hAHljwTXeJPdYBwt4dIXKHFJdzp70EHB5V/p/NNC9uIi9W5xH6PKe4pQSx9izhjX5JfDEhrbD7JmYozMbA5C71vYnCet3bIVzuXEN5++H4QFDbRfY3bcjHka9DEDmX/clE6r9FXq4knANDDoAAR5WsK9KeLtkD5CGTsJOcY+0lNt2k3424+xk/sfUONelGY00HpxnLkVemU+7sWhn4HjzdXENa3NzbHC4XI1N4FLL7c7FAOSu9T0jYf3CzcmyFc7psTWcw5Dj9eYieU4Fx7RJgbKkKQxAFr3uj0ko+vPBBscz2AAEWL7EG8+Dc493cGJy6udLXuxSU35VpGFc1wD/1uX8j6mx1n3zGnwswzxS3+ZsVuIYTwFurWmN/gK8F1g9cavOM4Av1pDvMRsDkLvWOqX0dHByqAAHrBW2kAKvL3F+w5a/K2s6l+FN7O7AAxP3wodtfafQHAOQ2df+XuEtRsKWysOaLP091AAEWLVE5cA7+mLlHvOgAE8CLil5sUtN+vdJD8Ubw87mf0yN9fk1n7NwQ/zoDu/bnfbekscJNwV1+2nMtQslf9ePfwxXjD1bVoxNIEPA8fqYW9R0QRADkOqNLmfbk1/4rSDwnJqDy9vik/Tw9m270IgzdmBfPpZtDtfZI4FnxSpLx8UguWkGIP/6pnXnhOaOC2KV0kb7Dg0xAAG2LVnpsLE3TKMUv5BCozepK8KTu3tOeibux7+66/kfU+MNJTx7XbEMeHzieH+YsF5foD9SyqYbgNx1vsM2prps3UK/nlxSy/MbgNx5rjcIb46BPyU+vNp+0oKhBCDc+T3+bOB7Jdf6oqLbdlXsJOzV0Gt8qYpX9/EDHLdcdD7/Y2rMb6jxUt0443dZyh/vW8uWyI3VAcv+4crhy8BZCf/OAOSucx22T9XlgITrOtyUdl3ow/OZxH87ygAEeCjwCuBTwGWkOzc8fGlx3L0NQLjze3sL4JC4vbusP/etH9mk46/6zPdQF13S1woTwG59yf+Y2m+ccvM+7dxcc4jzCDfcKbZMONaywHforrClYCUDkMrX1D1qbNp5RmJgfTDdFbZ2bVghUMoRgISCFds3/LND3EoV/h7sHbbtAMfEMst1XE8hD2HfuooM1ByA/HcL67uon1CW/U3x4XpY9xNjAZEqZedDYYkN2lzrwQoVWBpKPpXqsM2kpxJvggt15e5A59f5vCzzHN6WOO4PVniIE24quibc4Dw5jtE3INWvq6NqOi83pm4rjblHXdupEMazUxxfnwKQvgsPPtaqe91qDECG5tIceY2DFJ/cnfUntQ8AAAreSURBVJb7jEpzOHXSUzFpODwp6UX+x9TYV4o3SKl+lyOJfmoOT277zU18Qr1bw00dy7h2Zod3A5BarquNajw/G1YYx3NqelNZ15uPf1b2MgBpXEgy/3YoUjHJaGQByALg8FAdNueaD4ZvPtRx4Y/a2pOeqnADnC3/YybgiArnbq+ONOy6LvFJ7v0rHnu9uB87p1BNa42pcfkGJO/2vml7VBzHg+OWkpxCkY1nTo3LNyDNPVA4vM08j0UZSQCyAPhq6JOVe70HI5bbOzP3mZW61D+iTnHPaa/yP2ZpehW+fDvfeHAusf9Cim1regMWqib9kXbdFPc6Lz3LmAxAahBL1pYtjTqbE2saz/NqaoxZxoJYnvdfeooYgNQqbCE7MlYnTW5o2YSBByBXAwcBj8u9zoMSE+nC6zupq0LjrRUmPRa2UvUx/2Mm4KSEORwy6YgKfToOrXEMywC7Ar+hWbfGBoxz7qM3AKk9QE+pnjNdHKCWXg2xIeX2Lb15O31RD0oMQCr5dcwl2yNu9+ts892BBSB/i3+z9439lxbPvb6DE/coh2ha6rLeJp7P+Jx9OSYIlvk5aNIhwNMT5lC6m3dTwmvzhPGHn8MaGMsSsbHbEYm5QXMJT77fAaxSYAw534B8JeE8bDHpsNiw72PxwUFZv4pPWJduYFxPBA6sOei9Ko53zQLH79IWrOMTvwOa+jk+9g4KW6k+EjvTvzB+V9130iPAZh1Yz+8U/AlbFY+NVbkOjdXIdow9V/7lLZ6auWBC51Opy77oh19DFoORdeLNx7ExX+P6gk/pzooPkV4DPKzkcR8ErFbyp9QxRlzM5aXxhjLc7JwX+zmEnwtCg8v4VPvA+N+t0eLY1gBeG3tz/Lhg4npoRHx+3GK1e+xnVPhNTcihSrjOVutruXVJ8wD+rYabQ+V1UcXqRF332/BU0Q+zxijmFqwen4Y+IzRyjP/7I4EH5B6fhiFsb403/OvEbT6bxevsUTFIrWVbmCRN4mumm3PfXaqS8OTqgfHp1BCF6kOb+XGVJEnquVjTP9TlV7+9IHapHqr/yv1ZkSRJUj17ja141X/fnlH3fYi+2+VqH5IkSSoIOCD3naXq65gLPKFj6/nhWCmpisurNn6TJElSBwDPTmwkpm750VTDqa64ZWHpzwr5RdfY6EeSJGkAQsWU2MxN/feaGef1jXTH0TPGFbpfpwQwm2f7kEiSJKnWJmhfb+CGU+0LN/bLzTi37+/QSXhahQDkNuAlfuYlSZIGANi1oRtOte+EqXN7dEdOwvlT47qxZPDxitY/GJIkSaof8FT7fQzK3W7UY4fdLnj9VFOrom4FdvKzL0mSNAD2+xicsK1p+amSyl1oQvhXYJkZ43pCiflsle0DIkmSpPrEm9NTGr7xVLs+O3WO1+jICfjw1LieX+DfXA1s4GdekiRpIICPtnDjqXZtNHWOX9iBExAqVz10alxvnuff/Ah4UOsfCkmSJDUD2L2lm0+158JZznMXKmB9ZpZxfXCO//Z24CBgKT/7kiRJAwFsG2/0NCy7zXKuT808pnCdPWaWcR07y3/7a2DT1j4IkiRJal7YotORpGTVK3QHv/fUuV4cuC7zQh83x3X44xn/zU3AAdPjlyRJ0jDK7V6b8WZUzfnALOd73Q4s+LpzXIshwTz4GrBaKx8ASZKkvgDuETo4A3uH/ezAD4DLgD8C18c3CqHM6JXx//8z4GTgc6H6D/DWmAy8NrBspjlsaPAxWCHJ+yGznPO3Zx7XSXNci0sD5wAbt3LxS5Ik9eyNwZExyKjTVcB3gYOBV8cn1Us3OA+Dj2E7co7z/u3M43rGIso/L97U9S5JktQ7wMrAl1u+WQvdni8Ejo5Prp8TtqaEm7UK81gS2BW4seW5qD03zPH2Y5nMuT7fqvxBlCRJGgPgmXFrVVfcFAOTrwAfB/4jvjXZGngWsH58g7JuTDDfEngT8EngDwxDyBe4IG7bmflzQdzydnncAhd+FjAue89xHW+TcUy3AWu1/+mVJEnqGeClwM0Zb9zGKgQNvwSOB/aN+TJPCY3oQv5N4rm8fyj/GnN3ws34zsA+sfniV2OeTt8T8k+f6w1Z6IiecVz/XfnDKEmSNJLgY2xPz3MJQd73YrDx9JzlV4EVgScCLwh9NGJezonAecBf6K6fAystomjCXzKWA35g+2dSkiSpZ8yTaNxvY4frLUJ+wqQnQnAEPA54LvB6YP/4diEUEbg4U57FucCqixhzzu1Xu7Z7hiRJknoKOCvjTduQE6Q/Fd9yDLbqEXC/WGI5FA54RSy7fGAMVL4B/AS4ooYgN+QDfQC45zzj+Tp5nFelaIIkSdLoAC+b0SBN1d527AncN/c57ZrQByZsnYoVzkLhgE3iG4tXxjyVneN1uD2wHbBpDG5WnS/wiL//QTEJvG3hmOu3s4qSJEkDAqwQE5Vz3MT13Z+AvYB75T6PYwW8K9O5PzD33CVJknotNu/7daabub4J5W/fCSyX+7yNGbBYLEvctouabKQpSZI0GrFCUtsNCfuW4/Gf4a1R7nOlf/awIUMDTbdeSZIk1fxUOSQV35Lh5q7LjgMeWttCq7KY8N62d3rqJEmSGhC7jF+Z4Qavay4NJWmbWGOlA56UoY/NaVa9kiRJalCsMHQm43R9rGyV1JlczYrNE9t0FbCK51WSJKlhoRQqcDjjcmwIvppeW6UB1mr57UfoZL+R50uSJKlFsTP27xi2ML9tvbC6DTim5eti59xzliRJGqXQaA/4yAAT1G+NnbyXyb3GWjRgTeD2Fq+Nj3hOJEmSMgPWAL7EMIQcl7Vzr6mKAb7Z8la8xT03kiRJHQG8rOWn0XU3E3yDN5j9AWzZ4vVxesh/yj1nSZIkzQDsQj+FJ9srezL7I1QjAy5u8a3YfXLPWZIkSTMA68bqQH1yEbCpJ7J/gLe0dI2cBSyfe76SJEmaAVgKuID++AewTxi3J7J/gAcAf2vhOvkhsELu+UqSJGkKsB/98Q1gNU9ifwGfb+k6sQqaJElS1wBPj2Vru+6X9vTov5YSz4+0470kSVIHASsCl9P96lZ7WcGo/0IiOHBFg9fKgvg2b7Hcc5UkSdKUcJMGfJ3uugH4cGiW6MkbBuCwBq+XkFOyZe45SpIkaQ7A2+ima4H3Ayt58oYD2CS+oWiqzO7Dc89RkiRJcwDWB26hW64C3mXVosFuvfpVA9fMbcAB5ntIkiR1GLBsTOjuivOAV5rjMVwxKbxuFwIb5J6bJEmS5gEcSn5hK87XgI09YcMG7FDztXMj8B4DVkmSpB4IN/wN7sMvIpT7PQpYK/daqHnAg2MVs7qcADzCcydJktQDwJIZu52HilYf9+ZxPIAlgFNqun7OCEnsueckSZKkEoA30L4/A/sDDygzVg2ixPOnawo8Ns89H0mSJKW9/fg17QnNDXcLCe9lx6r+Az5U4dq5PeYHbZR7HpIkSUoEbE3zQm7J6cCOIeBJHav6Lb7xShEC5HcDD8k9B0mSJHW78tWVwEHAY6qOU6Nrbvkn4HBgM2Dx3OOXJElSTYBjaw46fg98EtjUG0fFa+x1BSus/TYWJNjcN2WSJEkDBexXQ07HicAuwJq556NuAV4cu5JPd7b/YSy7HPp2vMQqaJIkSSMBrAC8Fvgf4JzYm2FB/J+hUtVlwEXAqcDngPcBb4pvOFbMPX51G/AkYF1gNeB+vtmQJEmaDN7/B6RMBYri1pEBAAAAAElFTkSuQmCC;" vertex="1" parent="1">
          <mxGeometry x="289.89" y="111.43" width="196.22" height="48.57" as="geometry" />
        </mxCell>
        <mxCell id="lVntHpEIGGQ0D9R19hEr-7" value="" style="endArrow=none;dashed=1;html=1;rounded=0;" edge="1" parent="1">
          <mxGeometry width="50" height="50" relative="1" as="geometry">
            <mxPoint x="30" y="520" as="sourcePoint" />
            <mxPoint x="810" y="520" as="targetPoint" />
          </mxGeometry>
        </mxCell>
        <mxCell id="lVntHpEIGGQ0D9R19hEr-8" value="Frontend" style="text;html=1;align=center;verticalAlign=middle;whiteSpace=wrap;rounded=0;fontSize=26;" vertex="1" parent="1">
          <mxGeometry x="560" y="530" width="130" height="40" as="geometry" />
        </mxCell>
        <mxCell id="lVntHpEIGGQ0D9R19hEr-9" value="Backend" style="text;html=1;align=center;verticalAlign=middle;whiteSpace=wrap;rounded=0;fontSize=26;" vertex="1" parent="1">
          <mxGeometry x="560" y="470" width="130" height="40" as="geometry" />
        </mxCell>
        <mxCell id="lVntHpEIGGQ0D9R19hEr-10" value="" style="shape=flexArrow;endArrow=classic;html=1;rounded=0;" edge="1" parent="1">
          <mxGeometry width="50" height="50" relative="1" as="geometry">
            <mxPoint x="390" y="270" as="sourcePoint" />
            <mxPoint x="390" y="220" as="targetPoint" />
          </mxGeometry>
        </mxCell>
        <mxCell id="lVntHpEIGGQ0D9R19hEr-11" value="" style="shape=flexArrow;endArrow=classic;html=1;rounded=0;" edge="1" parent="1">
          <mxGeometry width="50" height="50" relative="1" as="geometry">
            <mxPoint x="390" y="370" as="sourcePoint" />
            <mxPoint x="390" y="320" as="targetPoint" />
          </mxGeometry>
        </mxCell>
        <mxCell id="lVntHpEIGGQ0D9R19hEr-12" value="Service" style="text;html=1;align=center;verticalAlign=middle;whiteSpace=wrap;rounded=0;fontSize=23;" vertex="1" parent="1">
          <mxGeometry x="322.52" y="370" width="130" height="40" as="geometry" />
        </mxCell>
        <mxCell id="lVntHpEIGGQ0D9R19hEr-13" value="" style="shape=flexArrow;endArrow=classic;html=1;rounded=0;" edge="1" parent="1">
          <mxGeometry width="50" height="50" relative="1" as="geometry">
            <mxPoint x="390" y="460" as="sourcePoint" />
            <mxPoint x="390" y="410" as="targetPoint" />
          </mxGeometry>
        </mxCell>
        <mxCell id="lVntHpEIGGQ0D9R19hEr-14" value="Route / RESTful" style="text;html=1;align=center;verticalAlign=middle;whiteSpace=wrap;rounded=0;fontSize=23;" vertex="1" parent="1">
          <mxGeometry x="322.52" y="470" width="130" height="40" as="geometry" />
        </mxCell>
        <mxCell id="lVntHpEIGGQ0D9R19hEr-15" value="" style="shape=image;verticalLabelPosition=bottom;labelBackgroundColor=default;verticalAlign=top;aspect=fixed;imageAspect=0;editableCssRules=.*;image=data:image/svg+xml,PHN2ZyB4bWxucz0iaHR0cDovL3d3dy53My5vcmcvMjAwMC9zdmciIHZpZXdCb3g9Ii0yLjM4NDE4NTc5MTAxNTYyNWUtNyAwLjAwMDIxNjQyNDQ2NTE3OTQ0MzM2IDQ0Mi4zNzAwMjU2MzQ3NjU2IDI3MC45Mjk3NzkwNTI3MzQ0IiB2ZXJzaW9uPSIxLjIiIGhlaWdodD0iMzYxLjIzOTAzODczNTA2MjIiIHdpZHRoPSI1ODkuODI3MDM0MTc5NzA2NyI+PGRlZnM+PGNsaXBQYXRoIGlkPSJhIj48cGF0aCBkPSJNMjM5LjAzIDIyNi42MDVsLTQyLjEzIDI0LjMxN2MtMS41NzguOTEtMi41NDYgMi41OS0yLjU0NiA0LjQwNnY0OC42NjhjMCAxLjgxNy45NjggMy40OTYgMi41NDYgNC40MDZsNDIuMTMzIDI0LjMzNmMxLjU3NS45MDcgMy41MTcuOTA3IDUuMDkgMGw0Mi4xMjYtMjQuMzM2YzEuNTctLjkxIDIuNTQtMi41OSAyLjU0LTQuNDA2di00OC42NjhjMC0xLjgxNi0uOTctMy40OTYtMi41NS00LjQwNmwtNDIuMTItMjQuMzE3Yy0uNzktLjQ1My0xLjY3LS42OC0yLjU1LS42OC0uODggMC0xLjc2LjIyNy0yLjU1LjY4Ii8+PC9jbGlwUGF0aD48bGluZWFyR3JhZGllbnQgZ3JhZGllbnRVbml0cz0idXNlclNwYWNlT25Vc2UiIGdyYWRpZW50VHJhbnNmb3JtPSJyb3RhdGUoMTE2LjExNCA1My4xIDIwMi45Nykgc2NhbGUoODYuNDgpIiB4Mj0iMS4yNTEiIHgxPSItLjM0OCIgaWQ9ImIiPjxzdG9wIHN0b3AtY29sb3I9IiMzRTg2M0QiIG9mZnNldD0iLjMiLz48c3RvcCBzdG9wLWNvbG9yPSIjNTU5MzRGIiBvZmZzZXQ9Ii41Ii8+PHN0b3Agc3RvcC1jb2xvcj0iIzVBQUQ0NSIgb2Zmc2V0PSIuOCIvPjwvbGluZWFyR3JhZGllbnQ+PGNsaXBQYXRoIGlkPSJjIj48cGF0aCBkPSJNMTk1LjM5OCAzMDcuMDg2Yy40MDMuNTIzLjkwNy45NzYgMS41IDEuMzE2bDM2LjE0IDIwLjg3NSA2LjAyIDMuNDZjLjkuNTIgMS45MjYuNzQgMi45MzQuNjY1LjMzNi0uMDI3LjY3Mi0uMDkgMS0uMTgzbDQ0LjQzNC04MS4zNmMtLjM0LS4zNy0uNzM4LS42OC0xLjE4NC0uOTRsLTI3LjU4Ni0xNS45My0xNC41ODItOC4zOWMtLjQxNC0uMjQtLjg2My0uNDEtMS4zMi0uNTN6bTAgMCIvPjwvY2xpcFBhdGg+PGxpbmVhckdyYWRpZW50IGdyYWRpZW50VW5pdHM9InVzZXJTcGFjZU9uVXNlIiBncmFkaWVudFRyYW5zZm9ybT0icm90YXRlKC0zNi40NiA1NTAuODQ2IC0yMTQuMzM3KSBzY2FsZSgxMzIuNzk4KSIgeDI9Ii41ODIiIHgxPSItLjQ1NiIgaWQ9ImQiPjxzdG9wIHN0b3AtY29sb3I9IiMzRTg2M0QiIG9mZnNldD0iLjU3Ii8+PHN0b3Agc3RvcC1jb2xvcj0iIzYxOTg1NyIgb2Zmc2V0PSIuNzIiLz48c3RvcCBzdG9wLWNvbG9yPSIjNzZBQzY0IiBvZmZzZXQ9IjEiLz48L2xpbmVhckdyYWRpZW50PjxjbGlwUGF0aCBpZD0iZSI+PHBhdGggZD0iTTI0MS4wNjYgMjI1Ljk1M2MtLjcwNy4wNy0xLjM5OC4yOS0yLjAzNS42NTJsLTQyLjAxIDI0LjI0NyA0NS4zIDgyLjUxYy42My0uMDkgMS4yNS0uMyAxLjgxLS42MjRsNDIuMTMtMjQuMzM2YzEuMy0uNzU0IDIuMTktMi4wMyAyLjQ2LTMuNDc2bC00Ni4xOC03OC44OWMtLjM0LS4wNjctLjY4LS4xMDItMS4wMy0uMTAyLS4xNCAwLS4yOC4wMDctLjQyLjAyIi8+PC9jbGlwUGF0aD48bGluZWFyR3JhZGllbnQgZ3JhZGllbnRVbml0cz0idXNlclNwYWNlT25Vc2UiIGdyYWRpZW50VHJhbnNmb3JtPSJ0cmFuc2xhdGUoMTkyLjg2MiAyNzkuNjUyKSBzY2FsZSg5Ny40MTcpIiB4Mj0iLjk4NCIgeDE9Ii4wNDMiIGlkPSJmIj48c3RvcCBzdG9wLWNvbG9yPSIjNkJCRjQ3IiBvZmZzZXQ9Ii4xNiIvPjxzdG9wIHN0b3AtY29sb3I9IiM3OUI0NjEiIG9mZnNldD0iLjM4Ii8+PHN0b3Agc3RvcC1jb2xvcj0iIzc1QUM2NCIgb2Zmc2V0PSIuNDciLz48c3RvcCBzdG9wLWNvbG9yPSIjNjU5RTVBIiBvZmZzZXQ9Ii43Ii8+PHN0b3Agc3RvcC1jb2xvcj0iIzNFODYzRCIgb2Zmc2V0PSIuOSIvPjwvbGluZWFyR3JhZGllbnQ+PC9kZWZzPjxwYXRoIGQ9Ik0yMTguNjQ3IDI3MC45M2MtMS40NiAwLTIuOTEtLjM4My00LjE5LTEuMTJsLTEzLjMzNy03Ljg5NmMtMS45OTItMS4xMTQtMS4wMi0xLjUwOC0uMzYzLTEuNzM1IDIuNjU2LS45MyAzLjE5NS0xLjE0IDYuMDMtMi43NS4yOTgtLjE3LjY4OC0uMTEuOTkzLjA3bDEwLjI0NiA2LjA4Yy4zNy4yLjg5NS4yIDEuMjM4IDBsMzkuOTUtMjMuMDZjLjM3LS4yMS42MS0uNjQuNjEtMS4wOHYtNDYuMWMwLS40Ni0uMjQtLjg3LS42MTgtMS4xbC0zOS45MzQtMjMuMDRjLS4zNy0uMjItLjg2LS4yMi0xLjIzIDBsLTM5LjkyNiAyMy4wNGMtLjM4Ny4yMi0uNjMzLjY1LS42MzMgMS4wOXY0Ni4xYzAgLjQ0LjI0Ljg2LjYyIDEuMDdsMTAuOTQgNi4zMmM1Ljk0IDIuOTcgOS41Ny0uNTMgOS41Ny00LjA1di00NS41YzAtLjY1LjUxLTEuMTUgMS4xNi0xLjE1aDUuMDZjLjYzIDAgMS4xNS41IDEuMTUgMS4xNXY0NS41MmMwIDcuOTItNC4zMiAxMi40Ny0xMS44MyAxMi40Ny0yLjMxIDAtNC4xMyAwLTkuMjEtMi41bC0xMC40OC02LjA0Yy0yLjU5LTEuNS00LjE5LTQuMy00LjE5LTcuMjl2LTQ2LjFjMC0zIDEuNi01LjggNC4xOS03LjI4bDM5Ljk5LTIzLjA3YzIuNTMtMS40MyA1Ljg5LTEuNDMgOC40IDBsMzkuOTQgMjMuMDhjMi41OCAxLjQ5IDQuMTkgNC4yOCA0LjE5IDcuMjh2NDYuMWMwIDIuOTktMS42MSA1Ljc4LTQuMTkgNy4yOGwtMzkuOTQgMjMuMDdjLTEuMjguNzQtMi43MyAxLjEyLTQuMjEgMS4xMiIgZmlsbD0iIzY4OWY2MyIvPjxwYXRoIGQ9Ik0yMzAuOTg3IDIzOS4xNjRjLTE3LjQ4IDAtMjEuMTQ1LTguMDI0LTIxLjE0NS0xNC43NTQgMC0uNjQuNTE2LTEuMTUgMS4xNTctMS4xNWg1LjE2Yy41NyAwIDEuMDUuNDE1IDEuMTQuOTc4Ljc4IDUuMjU4IDMuMSA3LjkxIDEzLjY3IDcuOTEgOC40MiAwIDEyLTEuOTAyIDEyLTYuMzY3IDAtMi41Ny0xLjAyLTQuNDgtMTQuMS01Ljc2LTEwLjk0LTEuMDgtMTcuNy0zLjQ5LTE3LjctMTIuMjQgMC04LjA2IDYuOC0xMi44NiAxOC4xOS0xMi44NiAxMi43OSAwIDE5LjEzIDQuNDQgMTkuOTMgMTMuOTguMDMuMzMtLjA5LjY1LS4zMS44OS0uMjIuMjMtLjUzLjM3LS44NS4zN2gtNS4xOWMtLjU0IDAtMS4wMS0uMzgtMS4xMi0uOS0xLjI1LTUuNTMtNC4yNy03LjMtMTIuNDgtNy4zLTkuMTkgMC0xMC4yNiAzLjItMTAuMjYgNS42IDAgMi45MSAxLjI2IDMuNzYgMTMuNjYgNS40IDEyLjI4IDEuNjMgMTguMTEgMy45MyAxOC4xMSAxMi41NiAwIDguNy03LjI2IDEzLjY5LTE5LjkyIDEzLjY5bTQ4LjY2LTQ4Ljg5aDEuMzRjMS4xIDAgMS4zMS0uNzcgMS4zMS0xLjIyIDAtMS4xOC0uODEtMS4xOC0xLjI2LTEuMThoLTEuMzh6bS0xLjYzLTMuNzhoMi45N2MxLjAyIDAgMy4wMiAwIDMuMDIgMi4yOCAwIDEuNTktMS4wMiAxLjkyLTEuNjMgMi4xMiAxLjE5LjA4IDEuMjcuODYgMS40MyAxLjk2LjA4LjY5LjIxIDEuODguNDUgMi4yOGgtMS44M2MtLjA1LS40LS4zMy0yLjYtLjMzLTIuNzItLjEyLS40OS0uMjktLjczLS45LS43M2gtMS41MXYzLjQ2aC0xLjY3em0tMy41NyA0LjNjMCAzLjU4IDIuODkgNi40OCA2LjQ0IDYuNDggMy41OCAwIDYuNDctMi45NiA2LjQ3LTYuNDggMC0zLjU5LTIuOTMtNi40NC02LjQ4LTYuNDQtMy41IDAtNi40NCAyLjgxLTYuNDQgNi40M20xNC4xNi4wM2MwIDQuMjQtMy40NyA3LjctNy43IDcuNy00LjIgMC03LjctMy40Mi03LjctNy43IDAtNC4zNiAzLjU4LTcuNyA3LjctNy43IDQuMTUgMCA3LjY5IDMuMzUgNy42OSA3LjciIGZpbGw9IiM2ODlmNjMiLz48cGF0aCBkPSJNOTQuOTM2IDkwLjU1YzAtMS44NC0uOTctMy41My0yLjU1OC00LjQ0NWwtNDIuMzU2LTI0LjM3Yy0uNzE1LS40Mi0xLjUxNi0uNjQtMi4zMjgtLjY3aC0uNDM4Yy0uODEyLjAzLTEuNjEzLjI1LTIuMzQuNjdMMi41NjIgODYuMTA1Qy45ODQgODcuMDI1IDAgODguNzE1IDAgOTAuNTU1bC4wOTMgNjUuNjRjMCAuOTEuNDcgMS43NiAxLjI3IDIuMjEuNzguNDggMS43Ni40OCAyLjU0IDBsMjUuMTgtMTQuNDJjMS41OS0uOTQ2IDIuNTYtMi42MTggMi41Ni00LjQ0VjEwOC44OGMwLTEuODMuOTctMy41MiAyLjU1NS00LjQzbDEwLjcyLTYuMTc0Yy43OTYtLjQ2IDEuNjctLjY4OCAyLjU2LS42ODguODc2IDAgMS43Ny4yMjYgMi41NDQuNjg3bDEwLjcxNSA2LjE3MmMxLjU4Ni45MSAyLjU2IDIuNiAyLjU2IDQuNDN2MzAuNjYzYzAgMS44Mi45ODMgMy41IDIuNTY1IDQuNDRsMjUuMTY0IDE0LjQxYy43OS40NyAxLjc3My40NyAyLjU2IDAgLjc3Ni0uNDUgMS4yNjgtMS4zIDEuMjY4LTIuMjF6bTE5OS44NjggMzQuMTc2YzAgLjQ1Ny0uMjQzLjg4LS42NCAxLjEwNmwtMTQuNTQ4IDguMzg2Yy0uMzk1LjIyNy0uODgzLjIyNy0xLjI3NyAwbC0xNC41NS04LjM4NmMtLjQtLjIyNy0uNjQtLjY1LS42NC0xLjEwNlYxMDcuOTNjMC0uNDU4LjI0LS44OC42My0xLjExbDE0LjU0LTguNGMuNC0uMjMuODktLjIzIDEuMjkgMGwxNC41NSA4LjRjLjQuMjMuNjQuNjUyLjY0IDEuMTF6TTI5OC43MzQuMzI0Yy0uNzk0LS40NDItMS43Ni0uNDMtMi41NDQuMDI3LS43OC40Ni0xLjI2MiAxLjMtMS4yNjIgMi4yMXY2NWMwIC42NC0uMzQgMS4yMy0uODk0IDEuNTUtLjU1LjMyLTEuMjM1LjMyLTEuNzkgMEwyODEuNjM0IDYzYy0xLjU4LS45MTQtMy41MjYtLjkxNC01LjExMiAwbC00Mi4zNyAyNC40NTNjLTEuNTgzLjkxLTIuNTYgMi42LTIuNTYgNC40MnY0OC45MmMwIDEuODMuOTc3IDMuNTEgMi41NiA0LjQzbDQyLjM3IDI0LjQ3YzEuNTgyLjkxIDMuNTMuOTEgNS4xMTcgMGw0Mi4zNy0yNC40OGMxLjU4LS45MiAyLjU2LTIuNiAyLjU2LTQuNDNWMTguODYzYzAtMS44NTYtMS4wMS0zLjU2My0yLjYzLTQuNDd6bTE0MS4wOTMgMTA3LjE2NGMxLjU3NC0uOTE0IDIuNTQzLTIuNjAyIDIuNTQzLTQuNDIyVjkxLjIxYzAtMS44MjQtLjk3LTMuNTA3LTIuNTQ3LTQuNDI1bC00Mi4xLTI0LjQ0Yy0xLjU5LS45Mi0zLjU0LS45Mi01LjEzIDBsLTQyLjM2IDI0LjQ1Yy0xLjU5LjkyLTIuNTYgMi42LTIuNTYgNC40M3Y0OC45YzAgMS44NC45OSAzLjU0IDIuNTggNC40NWw0Mi4wOSAyMy45OWMxLjU1Ljg5IDMuNDUuOSA1LjAyLjAzbDI1LjQ2LTE0LjE1Yy44LS40NSAxLjMxLTEuMyAxLjMxLTIuMjIgMC0uOTItLjQ5LTEuNzgtMS4yOS0yLjIzbC00Mi42Mi0yNC40NmMtLjgtLjQ1LTEuMjktMS4zLTEuMjktMi4yMXYtMTUuMzRjMC0uOTE2LjQ4LTEuNzYgMS4yOC0yLjIxNmwxMy4yNi03LjY1Yy43OS0uNDYgMS43Ni0uNDYgMi41NSAwbDEzLjI3IDcuNjVjLjc5LjQ1IDEuMjggMS4zIDEuMjggMi4yMXYxMi4wNmMwIC45MS40OSAxLjc2IDEuMjggMi4yMi43OS40NSAxLjc3LjQ1IDIuNTYtLjAxem0wIDAiIGZpbGwtcnVsZT0iZXZlbm9kZCIgZmlsbD0iIzMzMyIvPjxwYXRoIGQ9Ik0zOTQuNTM4IDEwNS4yYy4zLS4xNzcuNjc2LS4xNzcuOTggMGw4LjEzIDQuNjljLjMwNC4xNzYuNDkuNS40OS44NXY5LjM5YzAgLjM1LS4xODYuNjc0LS40OS44NWwtOC4xMyA0LjY5Yy0uMzA0LjE3Ny0uNjguMTc3LS45OCAwbC04LjEyNS00LjY5Yy0uMzEtLjE3Ni0uNS0uNS0uNS0uODV2LTkuMzljMC0uMzUuMTgtLjY3NC40OS0uODV6bTAgMCIgZmlsbC1ydWxlPSJldmVub2RkIiBmaWxsPSIjNjg5ZjYzIi8+PGcgdHJhbnNmb3JtPSJ0cmFuc2xhdGUoLTc4LjMwNiAtMTY0LjAxNikiIGNsaXAtcGF0aD0idXJsKCNhKSI+PHBhdGggZD0iTTMzMS4zNjMgMjQ2Ljc5M2wtMTE4LjcxNS01OC4xOS02MC44NyAxMjQuMTc0TDI3MC40OSAzNzAuOTd6bTAgMCIgZmlsbD0idXJsKCNiKSIvPjwvZz48ZyB0cmFuc2Zvcm09InRyYW5zbGF0ZSgtNzguMzA2IC0xNjQuMDE2KSIgY2xpcC1wYXRoPSJ1cmwoI2MpIj48cGF0aCBkPSJNMTQ0LjA3IDI2NC4wMDRsODMuODI1IDExMy40NTMgMTEwLjg2LTgxLjkwNi04My44My0xMTMuNDV6bTAgMCIgZmlsbD0idXJsKCNkKSIvPjwvZz48ZyB0cmFuc2Zvcm09InRyYW5zbGF0ZSgtNzguMzA2IC0xNjQuMDE2KSIgY2xpcC1wYXRoPSJ1cmwoI2UpIj48cGF0aCBkPSJNMTk3LjAyIDIyNS45MzR2MTA3LjQzaDkxLjY4M3YtMTA3LjQzem0wIDAiIGZpbGw9InVybCgjZikiLz48L2c+PC9zdmc+;" vertex="1" parent="1">
          <mxGeometry x="170" y="360" width="130" height="79.54" as="geometry" />
        </mxCell>
        <mxCell id="lVntHpEIGGQ0D9R19hEr-16" value="" style="shape=flexArrow;endArrow=classic;html=1;rounded=0;" edge="1" parent="1">
          <mxGeometry width="50" height="50" relative="1" as="geometry">
            <mxPoint x="391.48" y="580" as="sourcePoint" />
            <mxPoint x="391.48" y="530" as="targetPoint" />
          </mxGeometry>
        </mxCell>
        <mxCell id="lVntHpEIGGQ0D9R19hEr-18" value="" style="shape=flexArrow;endArrow=classic;html=1;rounded=0;" edge="1" parent="1">
          <mxGeometry width="50" height="50" relative="1" as="geometry">
            <mxPoint x="391.48" y="670" as="sourcePoint" />
            <mxPoint x="391.48" y="620" as="targetPoint" />
          </mxGeometry>
        </mxCell>
        <mxCell id="lVntHpEIGGQ0D9R19hEr-21" value="Redux" style="text;html=1;align=center;verticalAlign=middle;whiteSpace=wrap;rounded=0;fontSize=23;" vertex="1" parent="1">
          <mxGeometry x="323" y="586" width="130" height="40" as="geometry" />
        </mxCell>
        <mxCell id="lVntHpEIGGQ0D9R19hEr-22" value="" style="shape=image;verticalLabelPosition=bottom;labelBackgroundColor=default;verticalAlign=top;aspect=fixed;imageAspect=0;editableCssRules=.*;image=data:image/svg+xml,PHN2ZyB4bWxuczp4bGluaz0iaHR0cDovL3d3dy53My5vcmcvMTk5OS94bGluayIgeG1sbnM9Imh0dHA6Ly93d3cudzMub3JnLzIwMDAvc3ZnIiB2ZXJzaW9uPSIxLjEiIHZpZXdCb3g9Ii0wLjUgLTAuNSA1NzAgNTEzIiBoZWlnaHQ9IjUxMyIgd2lkdGg9IjU3MCI+JiN4YTsgICAgPHRpdGxlPlJlYWN0LUxvZ28tRmlsbGVkICgxKTwvdGl0bGU+JiN4YTsgICAgPGcgZmlsbC1ydWxlPSJldmVub2RkIiBmaWxsPSJub25lIiBzdHJva2Utd2lkdGg9IjEiIHN0cm9rZT0ibm9uZSIgaWQ9IlBhZ2UtMSI+JiN4YTsgICAgICAgIDxnIGZpbGwtcnVsZT0ibm9uemVybyIgZmlsbD0iIzU4QzREQyIgdHJhbnNmb3JtPSJ0cmFuc2xhdGUoLTIyNywgLTI1NikiIGlkPSJBcnRib2FyZC1Db3B5LTciPiYjeGE7ICAgICAgICAgICAgPGcgdHJhbnNmb3JtPSJ0cmFuc2xhdGUoMjI3LCAyNTYpIiBpZD0iUmVhY3QtTG9nby1GaWxsZWQtKDEpIj4mI3hhOyAgICAgICAgICAgICAgICA8cGF0aCBpZD0iUGF0aCIgZD0iTTI4NS41LDIwMSBDMjU1LjQwMDQ4MSwyMDEgMjMxLDIyNS40MDA0ODEgMjMxLDI1NS41IEMyMzEsMjg1LjU5OTUxOSAyNTUuNDAwNDgxLDMxMCAyODUuNSwzMTAgQzMxNS41OTk1MTksMzEwIDM0MCwyODUuNTk5NTE5IDM0MCwyNTUuNSBDMzQwLDIyNS40MDA0ODEgMzE1LjU5OTUxOSwyMDEgMjg1LjUsMjAxIi8+JiN4YTsgICAgICAgICAgICAgICAgPHBhdGggaWQ9IlNoYXBlIiBkPSJNNTY4Ljk1OTg1NiwyNTUuOTk0MzcgQzU2OC45NTk4NTYsMjEzLjIwNzY1NiA1MjkuMzM3ODAyLDE3NS42ODE0NCA0NjYuMjUxNjIzLDE1MC45ODUyMTQgQzQ2Ny4wOTQ2NDUsMTQ1LjQyMzU0MyA0NjcuODU3MzgsMTM5LjkyMjEwNyA0NjguMzk5MzIzLDEzNC41MjEwNjMgQzQ3NC42MjE2MzEsNzMuMDQxNTE0NSA0NTkuODA4NTIzLDI4LjY2ODYyMDQgNDI2LjcwOTg1Niw5LjU1NDE0MjkgQzM4OS42NzcwODUsLTExLjgyOTE3NDggMzM3LjM2OTU1LDMuNjkxMjk4OTggMjg0LjQ3OTkyOCw0Ni4wMTYyMTM0IEMyMzEuNTkwMzA2LDMuNjkxMjk4OTggMTc5LjI4Mjc3MSwtMTEuODI5MTc0OCAxNDIuMjUsOS41NTQxNDI5IEMxMDkuMTUxMzMzLDI4LjY2ODYyMDQgOTQuMzM4MjI0OSw3My4wNDE1MTQ1IDEwMC41NjA1MzMsMTM0LjUyMTA2MyBDMTAxLjEwMjQ3NiwxMzkuOTIyMTA3IDEwMS44NDUxMzksMTQ1LjQ0MzYyMSAxMDIuNzA4MjMzLDE1MS4wMjUzNyBDOTcuNDQ5Mzc5MSwxNTMuMDMzMTkzIDkyLjI5MDg4NDcsMTU1LjE2MTQ4NiA4Ny4zMzMxMDk5LDE1Ny4zOTAxNyBDMzEuMDExMTgyNCwxODIuNzA4ODIxIDAsMjE3Ljc2NTQxNSAwLDI1NS45OTQzNyBDMCwyOTguNzgxMDg0IDM5LjYyMjA1NDUsMzM2LjMwNzMwMSAxMDIuNzA4MjMzLDM2MS4wMDM1MjcgQzEwMS44NDUxMzksMzY2LjU2NTE5NyAxMDEuMTAyNDc2LDM3Mi4wNjY2MzMgMTAwLjU2MDUzMywzNzcuNDY3Njc4IEM5NC4zMzgyMjQ5LDQzOC45NDcyMjYgMTA5LjE1MTMzMyw0ODMuMzIwMTIgMTQyLjI1LDUwMi40MzQ1OTcgQzE1My42Mjk2ODMsNTA4Ljg4NzU3OCAxNjYuNTI0MzksNTEyLjE4Njc3MSAxNzkuNjAzOTIzLDUxMS45OTE4MzYgQzIxMC45NTYzMjgsNTExLjk5MTgzNiAyNDcuNTY3NTg5LDQ5NS40ODc1MjkgMjg0LjQ3OTkyOCw0NjUuOTcyNTI3IEMzMjEuMzcyMTk2LDQ5NS40ODc1MjkgMzU4LjAwMzUyOCw1MTEuOTkxODM2IDM4OS4zOTYwNzcsNTExLjk5MTgzNiBDNDAyLjQ3NTI2NSw1MTIuMTgzODU2IDQxNS4zNjkyMiw1MDguODg0ODU2IDQyNi43NSw1MDIuNDM0NTk3IEM0NTkuODQ4NjY3LDQ4My4zMjAxMiA0NzQuNjYxNzc1LDQzOC45NDcyMjYgNDY4LjQzOTQ2NywzNzcuNDY3Njc4IEM0NjcuODk3NTI0LDM3Mi4wNjY2MzMgNDY3LjEzNDc4OSwzNjYuNTY1MTk3IDQ2Ni4yOTE3NjcsMzYxLjAwMzUyNyBDNTI5LjM3Nzk0NiwzMzYuMzQ3NDU3IDU2OSwyOTguNzYxMDA2IDU2OSwyNTUuOTk0MzcgTTM4OS4xNTUyMTQsMjcuMTAyNTE4MiBDMzk3LjU2NTE1NCwyNi44OTk2MDYgNDA1Ljg3NzgzOSwyOC45MzY4NTAyIDQxMy4yNDE1NjksMzMuMDA1NTE4NiBDNDM2LjIyMzk2Niw0Ni4yNzcyMzA0IDQ0Ni41NDA5NTUsODIuMjc3NTAxNSA0NDEuNTIyOTY1LDEzMS43NzAzNDUgQzQ0MS4xODE3NDEsMTM1LjE0MzQ4OCA0NDAuNzgwMzAyLDEzOC41NTY3ODggNDQwLjI5ODU3NSwxNDEuOTkwMTY1IEM0MTQuMDY2OTIyLDEzNC4wODgwNCAzODcuMjA1NzcxLDEyOC40NTIxNTQgMzYwLjAxMDcyNCwxMjUuMTQ0NTI4IEMzNDMuNTI1MDIxLDEwMy4yMjQwNTUgMzI1LjE5MjUyNCw4Mi43NTY0NDc1IDMwNS4yMTQyNjYsNjMuOTY2MTUzMyBDMzM2LjU4Njc0MywzOS43MTE2NDgzIDM2Ni4wMzIzMTMsMjcuMTAyNTE4MiAzODkuMTM1MTQyLDI3LjEwMjUxODIgTTM3OC4zNTY0OTgsMzEwLjIwNTU5OCBDMzY4LjIwNDkxMiwzMjcuODMwNzMzIDM1Ny4xNTA2MjYsMzQ0LjkxOTk2NSAzNDUuMjM3NzU5LDM2MS40MDUwOTEgQzMyNS4wNDUwNDksMzYzLjQ3OTk5NyAzMDQuNzU4ODE4LDM2NC41MTIwNSAyODQuNDU5ODU2LDM2NC40OTcyOTkgQzI2NC4xNjc1ODksMzY0LjUxMTM2IDI0My44ODgwNzUsMzYzLjQ3OTMwOCAyMjMuNzAyMDI1LDM2MS40MDUwOTEgQzIxMS44MjA5MTQsMzQ0LjkxOTM4MSAyMDAuODAwMDcsMzI3LjgzMDA2IDE5MC42ODM2NDYsMzEwLjIwNTU5OCBDMTgwLjUzMjU5MywyOTIuNjI5Mjg1IDE3MS4zMDY5NzQsMjc0LjUzNDE4NyAxNjMuMDQ0NTUzLDI1NS45OTQzNyBDMTcxLjMwNjk3NCwyMzcuNDU0NTU0IDE4MC41MzI1OTMsMjE5LjM1OTQ1NSAxOTAuNjgzNjQ2LDIwMS43ODMxNDIgQzIwMC43ODQxMjEsMTg0LjIyOTM2NyAyMTEuNzcwOTk5LDE2Ny4yMDEwODcgMjIzLjYwMTY2NSwxNTAuNzY0MzUzIEMyNDMuODI0NjM2LDE0OC42MzgwOSAyNjQuMTQ1NTU5LDE0Ny41NzkxNjggMjg0LjQ3OTkyOCwxNDcuNTkxODc3IEMzMDQuNzcyMTQ2LDE0Ny41Nzk3MjUgMzI1LjA1MTU1OSwxNDguNjExNzcyIDM0NS4yMzc3NTksMTUwLjY4NDA0IEMzNTcuMTA5MDQ4LDE2Ny4xNDYwNyAzNjguMTM2MDk0LDE4NC4yMDExMTIgMzc4LjI3NjIxLDIwMS43ODMxNDIgQzM4OC40MTk0MTgsMjE5LjM2MzcxOCAzOTcuNjQ0ODI1LDIzNy40NTg0MDMgNDA1LjkxNTMwMywyNTUuOTk0MzcgQzM5Ny42NDQ4MjUsMjc0LjUzMDMzNyAzODguNDE5NDE4LDI5Mi42MjUwMjIgMzc4LjI3NjIxLDMxMC4yMDU1OTggTTQxOS43MjQ4MTMsMjkwLjEyNzM2NiBDNDI2LjA5NTE2LDMwNy41MDM1MzYgNDMxLjMyNDk4NSwzMjUuMjc3MDgzIDQzNS4zODA5NDQsMzQzLjMzNDY4MiBDNDE3Ljc3OTYzMywzNDguODIzNjM1IDM5OS44MzY3OTMsMzUzLjE0OTc3NCAzODEuNjY4MzcyLDM1Ni4yODUxNDIgQzM4OC41NzMxMjcsMzQ1Ljg3MTIzMiAzOTUuMjYzNzgxLDMzNS4wMzU2NzkgNDAxLjc0MDMzNCwzMjMuNzc4NDgzIEM0MDguMTQzMjkxLDMxMi42NTUxNDMgNDE0LjE0NDgwNywzMDEuNDMxNDExIDQxOS44MDUxMDEsMjkwLjIwNzY3OSBNMjQ2LjM2MzI3MSwzOTAuMzc3OTgxIEMyNTguODQ4MDMyLDM5MS4xNDA5NTQgMjcxLjU5MzcyOCwzOTEuNTgyNjc1IDI4NC41LDM5MS41ODI2NzUgQzI5Ny40MDYyNzIsMzkxLjU4MjY3NSAzMTAuMjMyMjU2LDM5MS4xNDA5NTQgMzIyLjczNzA4OSwzOTAuMzc3OTgxIEMzMTAuODgwNjQzLDQwNC41ODM0MTggMjk4LjEwNzY2LDQxNy45OTc1NjMgMjg0LjUsNDMwLjUzNDQ0NiBDMjcwLjkyMTY0Myw0MTcuOTk5NTQ4IDI1OC4xODE5Miw0MDQuNTg1MTI1IDI0Ni4zNjMyNzEsMzkwLjM3Nzk4MSBaIE0xODcuMzExNTU2LDM1Ni4yNDQ5ODYgQzE2OS4xMzcyODYsMzUzLjEyMzY0NiAxNTEuMTg3NzI2LDM0OC44MTA5MTggMTMzLjU3ODkxMiwzNDMuMzM0NjgyIEMxMzcuNjE4NTQ5LDMyNS4zMDU2NDkgMTQyLjgyODIyMiwzMDcuNTU5MDU4IDE0OS4xNzQ4MjcsMjkwLjIwNzY3OSBDMTU0Ljc1NDgzMywzMDEuNDMxNDExIDE2MC43MzYyNzgsMzEyLjY1NTE0MyAxNjcuMjM5NTk0LDMyMy43Nzg0ODMgQzE3My43NDI5MSwzMzQuOTAxODI0IDE4MC40NjcwMTcsMzQ1Ljg2NDUzOSAxODcuMzExNTU2LDM1Ni4yODUxNDIgTTE0OS4xNzQ4MjcsMjIxLjc2MDk4NCBDMTQyLjg1MDk1NCwyMDQuNDczOTM4IDEzNy42NTQ3ODcsMTg2Ljc5NDc0NSAxMzMuNjE5MDU2LDE2OC44MzQ3NjIgQzE1MS4xODQxOCwxNjMuMzUyMzc4IDE2OS4wODU2NTMsMTU5LjAxMzEwMSAxODcuMjExMTk3LDE1NS44NDQxNDYgQzE4MC4zNDY1ODUsMTY2LjIyNDU5MiAxNzMuNjIyNDc4LDE3Ni45ODY1MjUgMTY3LjEzOTIzNCwxODguMjEwMjU3IEMxNjAuNjU1OTksMTk5LjQzMzk4OSAxNTQuNzM0NzYxLDIxMC41MTcxNzMgMTQ5LjA3NDQ2NywyMjEuNzYwOTg0IE0zMjIuNjE2NjU3LDEyMS41OTA2ODEgQzMxMC4xMzE4OTYsMTIwLjgyNzcwOCAyOTcuMzg2MiwxMjAuMzg1OTg3IDI4NC4zNzk1NjgsMTIwLjM4NTk4NyBDMjcxLjQ3OTk4NywxMjAuMzg1OTg3IDI1OC43Njc3NDQsMTIwLjc4NzU1MiAyNDYuMjQyODM5LDEyMS41OTA2ODEgQzI1OC4wNjE0ODgsMTA3LjM4MzUzNyAyNzAuODAxMjExLDkzLjk2OTExMzcgMjg0LjM3OTU2OCw4MS40MzQyMTU3IEMyOTcuOTkyNDEsOTMuOTY1ODI3NyAzMTAuNzY1NzI3LDEwNy4zODAzMjQgMzIyLjYxNjY1NywxMjEuNTkwNjgxIFogTTQwMS43MDAxOSwxODguMjEwMjU3IEMzOTUuMTk2ODc1LDE3Ni45Mzk2NzYgMzg4LjQ3Mjc2NywxNjYuMDk3NDMgMzgxLjUyNzg2OCwxNTUuNjgzNTIgQzM5OS43NDQyMjQsMTU4LjgxOTA0OSA0MTcuNzM0MjI0LDE2My4xNTE5NDkgNDM1LjM4MDk0NCwxNjguNjU0MDU4IEM0MzEuMzMxOTYzLDE4Ni42ODA2NzMgNDI2LjEyMjQ2NiwyMDQuNDI2NjY0IDQxOS43ODUwMjksMjIxLjc4MTA2MiBDNDE0LjIwNTAyMywyMTAuNTU3MzMgNDA4LjIwMzUwNiwxOTkuMzMzNTk4IDQwMS43MjAyNjIsMTg4LjIzMDMzNSBNMTI3LjUxNzE3OSwxMzEuNzkwNDIzIEMxMjIuNDM4OTczLDgyLjMxNzY1NzkgMTMyLjgxNjE3OCw0Ni4yOTczMDg2IDE1NS43Nzg1MDMsMzMuMDI1NTk2OCBDMTYzLjE0NDY5OSwyOC45NjMyNDc0IDE3MS40NTU2NTEsMjYuOTI2NDI4MiAxNzkuODY0ODU4LDI3LjEyMjU5NjQgQzIwMi45Njc2ODcsMjcuMTIyNTk2NCAyMzIuNDEzMjU3LDM5LjczMTcyNjUgMjYzLjc4NTczNCw2My45ODYyMzE2IEMyNDMuNzk0MTMzLDgyLjc4OTg3MzQgMjI1LjQ0ODI5OCwxMDMuMjcwODEyIDIwOC45NDkxMzIsMTI1LjIwNDc2MyBDMTgxLjc2MTY5MSwxMjguNTI4MDI1IDE1NC45MDM1NSwxMzQuMTQzMTMgMTI4LjY2MTI4MSwxNDEuOTkwMTY1IEMxMjguMTk5NjI2LDEzOC41NTY3ODggMTI3Ljc3ODExNSwxMzUuMTYzNTY2IDEyNy40NTY5NjMsMTMxLjc5MDQyMyBNOTguNDUyOTc3MywxODIuMTA2NDc0IEMxMDEuNTQ0MDYsMTgwLjc2NzkyNSAxMDQuNjk1MzU4LDE3OS40MjkzNzYgMTA3LjkwNjg3MiwxNzguMDkwODI4IEMxMTQuMjIwNTMyLDIwNC43MzU2NjggMTIyLjc4MTc5MywyMzAuNzk2OSAxMzMuNDk4NjI0LDI1NS45OTQzNyBDMTIyLjc2MTUyOSwyODEuMjQxMzE2IDExNC4xOTMyOTYsMzA3LjM1NzA2MyAxMDcuODg2OCwzMzQuMDU4NTM5IEM1Ni43NDM0Mzg3LDMxMy4wNzY3ODYgMjcuMDk3MTQ5NywyODQuMDAzNTA1IDI3LjA5NzE0OTcsMjU1Ljk5NDM3IEMyNy4wOTcxNDk3LDIyOS40NTA5NDcgNTMuMTkwNzAxMywyMDIuNTI2MDM3IDk4LjQ1Mjk3NzMsMTgyLjEwNjQ3NCBaIE0xNTUuNzc4NTAzLDQ3OC45NjMxNDMgQzEzMi44MTYxNzgsNDY1LjY5MTQzMiAxMjIuNDM4OTczLDQyOS42NzEwODIgMTI3LjUxNzE3OSwzODAuMTk4MzE3IEMxMjcuODM4MzMxLDM3Ni44MjUxNzQgMTI4LjI1OTg0MiwzNzMuNDMxOTUzIDEyOC43MjE0OTcsMzY5Ljk3ODQ5NyBDMTU0Ljk1MzY4NiwzNzcuODc4NTE3IDE4MS44MTQ2NTUsMzgzLjUxNDM2NSAyMDkuMDA5MzQ4LDM4Ni44MjQxMzQgQzIyNS41MDAyOTUsNDA4Ljc1MjcxOSAyNDMuODMyMzIxLDQyOS4yMzMyMzQgMjYzLjgwNTgwNiw0NDguMDQyNjY1IEMyMjAuMDY5LDQ4MS44MzQzMzEgMTgwLjEwNTcyMiw0OTIuOTc3NzUgMTU1LjgzODcxOSw0NzguOTYzMTQzIE00NDEuNTAyODkzLDM4MC4xOTgzMTcgQzQ0Ni41MjA4ODMsNDI5LjY5MTE2MSA0MzYuMjAzODk0LDQ2NS42OTE0MzIgNDEzLjIyMTQ5Nyw0NzguOTYzMTQzIEMzODguOTc0NTY2LDQ5My4wMTc5MDYgMzQ4Ljk5MTIxNiw0ODEuODM0MzMxIDMwNS4yNzQ0ODEsNDQ4LjA0MjY2NSBDMzI1LjI0MTM2NCw0MjkuMjMyNzM3IDM0My41NjY2ODEsNDA4Ljc1MjIxNSAzNjAuMDUwODY4LDM4Ni44MjQxMzQgQzM4Ny4yNDU5MTUsMzgzLjUxNjUwOCA0MTQuMTA3MDY2LDM3Ny44ODA2MjIgNDQwLjMzODcxOSwzNjkuOTc4NDk3IEM0NDAuODIwNDQ2LDM3My40MzE5NTMgNDQxLjIyMTg4NSwzNzYuODI1MTc0IDQ0MS41NjMxMDksMzgwLjE5ODMxNyBNNDYxLjE5MzQ4OCwzMzQuMDE4MzgyIEM0NTQuODY5MTY2LDMwNy4zMzI1MjMgNDQ2LjI5NDQ5NCwyODEuMjMxMDQ5IDQzNS41NjE1OTIsMjU1Ljk5NDM3IEM0NDYuMjg5Nzk3LDIzMC43NDQwODEgNDU0Ljg1Nzc3OCwyMDQuNjI5MTAxIDQ2MS4xNzM0MTYsMTc3LjkzMDIwMiBDNTEyLjIxNjQxNywxOTguOTExOTU1IDU0MS45NDI5OTQsMjI3Ljk4NTIzNiA1NDEuOTQyOTk0LDI1NS45OTQzNyBDNTQxLjk0Mjk5NCwyODQuMDAzNTA1IDUxMi4yOTY3MDUsMzEzLjA3Njc4NiA0NjEuMTUzMzQ0LDMzNC4wNTg1MzkiLz4mI3hhOyAgICAgICAgICAgIDwvZz4mI3hhOyAgICAgICAgPC9nPiYjeGE7ICAgIDwvZz4mI3hhOzwvc3ZnPg==;" vertex="1" parent="1">
          <mxGeometry x="235.85" y="661" width="86.67" height="78" as="geometry" />
        </mxCell>
        <mxCell id="lVntHpEIGGQ0D9R19hEr-23" value="React.js" style="text;html=1;align=center;verticalAlign=middle;whiteSpace=wrap;rounded=0;fontSize=23;" vertex="1" parent="1">
          <mxGeometry x="332.03" y="680" width="130" height="40" as="geometry" />
        </mxCell>
        <mxCell id="lVntHpEIGGQ0D9R19hEr-24" value="" style="shape=image;verticalLabelPosition=bottom;labelBackgroundColor=default;verticalAlign=top;aspect=fixed;imageAspect=0;image=data:image/webp,UklGRvAlAABXRUJQVlA4WAoAAAAIAAAA/wMA/wIAVlA4IEwlAADwNgGdASoABAADPm02mkkkIyKhIpaYMIANiWdu/CX54s0+hnRfYb5b/l9tdt30/+H/Ij377O/kfx5/Uvd33oSf/Y/5t/uf332r+kf9V/678////9gX6lfsF18PMB+xHrR/5f1M/43/T+wB/bOoj9BHy5vZl/uv/Q6gD//+3p0i/yX+G78f8X/y+6X7cvtn81F3f43wM+yX8r2l/3nePwC/x/zgnpjgLvx6lv4vmz/LeoBwXlAjypf+LzY/t/+44GH7ne0iF8dWyMunm8rZGXTzeVsjLp5vK2Rl083lbIy6ebytkZdPN5WyMunm8rZGXTzeVsjLp5vK2Rl083lbIy6ebytkZdPN5WyMunm8rZGXTzeVsjLp5vK2Rl083lbIy6ebytkZdPN5WyMunm8rZGXTzeVsjLp5vK2Rl083lbIy6ebytkZdPN5WyMunm8rZGXTzeVsjLp5vK2Rl083lbIy6ebytkZdPN5WyMunm8rZGXTzeVsjLp5vK2Rl083lbIy6ebytkZdPN5WyMunm8rZGXTzeVsjLp5vK2Rl083lbIy6ebytkZdPN5WyMunm8rZGXTzeVsjLp5vK2Rl083lbIy6ebytkZdPN5WyMunm8rZGXTzeVsjLp5vK2Rl083lbIy6ebytkZdPN5WyMunm8rZGXTzeVsjLp5vK2Rl083lbIy6ebytkZdPN5WyMunmt7P3gdd3KTMBwkwtzuKRKkVuVsjLp5vK2Rl083lbIy6ebytkZdOMZdWKW8u/NQFINWduyNIzEQG9ajl9KkVuVsjLp5vK2Rl083lbIy6ebytkZdPIDfK4yaXbPgK/tET8Nn6dkB3h9mMttcaP1c8BApiHtko3s2m8rZGXTzeVsjLp5vK2Rl083lbIy6ebuIAliCzPOtduZvqPsrHyHXI5PmzMYNnNuAMv4uRl083lbIy6ebytkZdPN5WyMunm8rWEc/1vsXzOahYWi3FHUb1rjUWpgG4pEqRW5WyMunm8rZGXTzeVsjLp5vK1kIVsJoFhenw0Wil0AdEfwIsN/5cUiVIrcrZGXTzeVsjLp5vK2Rl083lXGt3rnQ7e02+0Rbqnb5Jg/UAimSYHe9ES2Rl083lbIy6ebytkZdPN5WyMunm8q2m/QyiHwyav7YzX1rJHleeoKmOtw66cY1Bk0FjVkXkbALcrZGXTzeVsjLp5vK2Rl083lbIy15Zx2ZH7z0S9yd49wQycz05J3JBqFU94PpO2qkSpFblbIy6ebytkZdPN5WyMunm8rWL65+bqoXzKbaaqHqSUaIjIvUAOgiy4JrBi5p8BbhmcKizIx+bw2fTD10ZjE9ARl083lbIy6ebytkZdPN5WyMuh2C7oLO8dBTu2QktuXjnOoFu4ykmBv1nF9OUNHGUMR8TYZyo1MAtytkZdPN5WyMunm8rZGXTzeSrCAw3bde+NP0uCbumNIRAmshRq4uNujV4y/Bd19NQaD6NwWkbjcWbfk2RcjLp5vK2Rl083lbIy6ebytkZay7E1jPCLPud+EllkMbBL9w0LF62NMLS/oteECFDQDNHaH7xmIm6ycf1jfBQztJVb//QEZdPN5WyMunm8rZGXTzeVbJXfHDAq17xYa6R86OdOG1nAEAjncgzO3kPQO8YXCZ0JW3Qno6szqYnKzYYwvY+M6YBblbIy6ebytkZdPN5WyMunGMAZPPAVQfq+QijgPbp1Dnxcj9CYqJ+0EGSn4IDdefIlCzBcpvdnDMKQtL4RObAIy6ebytkZdPN5WyMunm8rZFHKX574qXv1xu5yXFnLZY6Yg7UAE8Gop9gHpGbntzu8lCbACaQ2nm8rZGXTzeVsjLp5vK2Rl083bxj1kzR1ir9Z0OQKjL+TXyAlF7SC1DoBvm477LZQTppWGYpd28Vc1S+5dwPhsUwC3K2Rl083lbIy6ebytkZa8K4da3Dpdf0jopqozyeQTK0dRDuhZyt7SBXNyMg/caaTMIApluEiEXIy6ebytkZdPN5WyMunm8rZGWtD0OtwL5pxsNUSD6Nw7XeXhfS3xBiCL7IvfMCdDCMg2aEWyrZcNgRxK3r3kz0BGXTzeVsjLp5vK2Rl083lbGxZaxTjRcjOtCRbfR9HQonp/LdL2OUgwIx2hOUfqrwkCfQgxXlN2O6yKKHC9mIZB/bbK8ThXdqeVn35sELX/SD5PuhGXTzeVsjLp5vK2Rl083lbIy6eR0myiHuW1FHJVa3KznYpzcaWAJQp2z/u5Zd6X9Tyo9DYJ5Zh0LYe0CajvYITuICCwt/44QGW/3VsjLp5vK2Rl083lbIy6ebytkUtPMca+83QiWM/asBa+K9QzPnVx5/DB58Hvy9ARl083lbIy6ebytkZdPN5WyMuh6yqKwWOGYGrXcBSEGmaDrPIVGHnBejvMJ+5lyMunm8rZGXTzeVsjLp5vK2Rl083lazvD0n0EoEO3ooFu2nAQFNVMJ8EyLhGDLbkgrr+Feb5WsuPTMZDSGuS9CxGoabxJEd5Nx7JR/7IeBu0pBWjJ7R5FDeG6jrUVSa82lo0Jlbg/BOFzuLkZdPN5WyMunm8rZGXTzeVsjIh4aeuNUaNTCzD9PmwU0Qqx7SD2GON2WPAB/jrevQ+3lWJqu0hm8hkpNLixBUEnASvxbSbsdParg+c55VGAnAnX/5WvkVuVsjLp5vK2Rl083lbIy6ebyrltJsXBKu6n6KrW5UjM3U8LSLOOBhGvWXaWc92d/FCCFjCz3nI0MChLMm8iKR7lp76x8rh8xcKI5pSzh5eJd42E1Ho8VHSFurhkZ5vK2Rl083lbIy6ebytkZdPN3ELEzDsDPK0+ws8WzzLFvYCTWsddPFNC2NvyjKPSlkpwvToQxofv8PMBWTpY+9Qtu5LNiNftKh8t2KkXIcxPraaPeSO8yx4nFwL1Y0hRdVlB/WZXzZkjMu4uHpgnm8rZGXTzeVsjLp5vK2Rl083lc2QyAzKPBpEXNu8zAtytkZdPN5WyMunm8rZGXTzeVsjLp5vK2Rl083lbIy6ebytkZdPN5WyMunm8rZGXTzeVsjLp5vK2Rl083lbIy6ebytkZdPN5WyMunm8rZGXTzeVsjLp5vK2Rl083lbIy6ebytkZdPN5WyMunm8rZGXTzeVsjLp5vK2Rl083lbIy6ebytkZdPN5WyMunm8rZGXTzeVsjLp5vK2Rl083lbIy6ebytkZdPN5WyMunm8rZGXTzeVsjLp5vK2Rl083lbIy6ebytkZdPN5WyMunm8rZGXTzeVsjLp5vK2Rl083lbIy6ebytkZdPN5WyMunm8rZGXTzeVsjLp5vK2Rl083lbIy6ebytkZdPN5WyKAAA/v4o+AAAAAAAAAAAAAAAAAAAAAAAAAAAAAAAAzNAjb36athWaac0tTu7ggQvw9/sRXdsHFmoB0pSKBElgcc1eECWz/JAZPEt4R4/Xfllu9skkfceYJDjXbUrm98jQi/JiAAUlgGENkXW14EL/kd6IcfeEg4Nuv4OialmVF4VPrDXT4PeJ90LmJfclNjpP7/CTRD5KkFAxgK26Bpj9OBi193WfJxLlZklh6WrHLDELEYAojVI2PyQDDZ8WFXYQoaV7GOj7pKiMgpjccDpdTo8gXDKto5SBhN/7PsKN+M4zxoa0f9kZc0v4AAEqI5RRgGVxcrEg3G5kiv/xDtVK64AGwQ229MWMowKxCEm64sXEjz6MCPb7OJeEZ+Hk7SPmT0oFxfyvOYQxi9x3ySissk2bEHwvRgi5WwgNr7xGspfkSKYspipjbZUTTNmWy5utKTlyYbsMM9ub95FnHFAdaNYoUckjAG6sVrjLcu0e7oEKln2l1TTl6Z0tIVxmwBZSnNu0Ve925Y7OQilH64DE5qDPtytrcTBLC+xYTlUTSeWKElgkmVOK1w/fjoatvP2EGhaKu5rXa+eHGa3gkMVtqlRXB81u9heT/3Yc/AF2MhxAAAOy7tQ5Ilt3Fg2tF46lResOtEoc3NwrdtXqpinYAcHOfSYVa8vzqMbG7EzIN4lRNKlCqn9F6GULhcItldTtF695JMGAuyjfKqhL17qs3lnT+uyZlAcoByg84zIJRDQBBOcPgBr78rTURBxmOrYd2o6J5CcwLB+tnpTSQN5dk42VerwQV/pFggqo93zkkgA/8H5qxqr7I2BQtEj6zPyJm+OX/w3TpCB+2dqx8+QAEewvCtRXdlf3ZKYs8Nt+2mbCUyJD8eA7b1EXcWHOZpvAD6G81tysaRSAvslkKMWBUDDMgHr6AnaPs3W4GrNdN/p2re9nrCLOrIX2YVSf/DzuomtjRF7Jy/KmnmaHM89eCARiTXo3lWFg2utbor2xfgZySHnh76jJ66Ufj3LZL6z/RYQAA3HKN4MBN83iEQlDyKL1lPvzkbbiIwTX3xQu8ixiKKSkoiEUmoLayf1YoPiLlk5TKFTpqRm6pIwtZM1QUEJfU36gxceQBbqPWnT4C4oE6O2pT2uQuPalEjjssadl+LFI1Ulgf+eK4+m8SZXOywi/xWKHR6fABMHgMz2gYyAn9D5B08jY+JRg70RLYYr/Zx8j0gFEMyWKxMrDEvkINbEteHhRF4ZeNTN20/ljl4PAaVej7azFyFux5IEZNqkcPpxQRZwJc0+xAjPDJ6P8IepMEZVyZ0jf+oDvuTK8WtEJvLYzfTpHybs9gLlQCJmpvJ5wMoj1ZNU3Kp2tAWf+DwztdNgAYVmfUovOx1gqRT2nryvBGukkJ51bTrBU9Em2W6P/XmjZ3EXXIWPC8JpWZFvDscPYIbEa1xpC+NbkkxwZzhWCQm3MJX9D98aUzzd//TFdsCO2fCtFYFn2lOS9jXN2bUadY/JtmhgRISDYrbO5eQq950YOuvx8shSKnDSWRpKa+KMLdLrOjSL5/2oILb/agSUXY0P7Cucp41l1UB1UYmr6sTsxzgD3n8xJtfQktlEe/DgpQE/pynM3FX0v8bKJOQtaOB7emL1M7mt2v00WbVQtVLM8mNbgbfzaw2sX4PosvmbuApIAAhN7DKuvUm6LBZm5t13tsxdjfoZ5HogxlamWH9eoFc4A8bWkBfcQWqp7owWW8BaBoHC9Kzf1Xaxnk5J/yHf+mvOiL6o7Gi3xkZWsaHaKRA26XYlSp1pLEM1o4POQ4txvqR/0hMIowRelBaZZBi9pShw/ghnyfAZHDoySTDRf5ulNNYAIf3t0HtsVWstbMBVVkdJqSXYKmqxgYidHOOnFXIEHpAuqVN48cjtR4+kObEFzu8tfTaLwi2h65OaSTIxWByRYoH0OsbKQSQ0CpkgWY0so305h1kgeqmaMyd+mHOTKdalxkgTxC3VPuYcxcHcersMQ6A7bUxiqElyEj3zqcciEYuUpdP3ICd79LEdNFWdV6T9LrHgQLfYv7d3YlyssoY+Gz6PIiYeNB4WO00HlXuRq/fRLVGyspek5Puv376WbdDtgDjmKucYDN/QxdMy7U/jdqIyrD9ODf+X4c7Ug9dKvjJehWpli/TMZXs48u2bcUrxoC1QG0cMiuE1fuCb1P02MPh3XWXywF7cUF64pyZJPgS/MUIDTr908DNJgO+FLCf8kw8y1Hh4eW2lCwdLBGlDp8wWuM9cAOzHoqJ0gUnZg8pM+fHKbZUK301W40qXDr1c1+Z6YK7/lJ6dnAhNNiBRXJtWpqPEkxd0dQaadmHLIJxT57pb/ros/Dqu8wZCIojXJEwCHO/osqn4ePms3dReM9XXaf6sixk3dtzDsR9Kr/R8Z6NFcDq698l7I6A7E7KBm/VlM08HvLmk4AAAHl+eoXnBfTpUFtTgUc7yVp0ZYQKG7TEnQ9Eot+7KDXhkgn+Z0y9ElxN4bL+KsXTwIpmlKKQLz9ZQ9mpq3VjVJ329GR/a1dgCelC9MJn0eqfcTQK1D9DMWAMGK70tePyQAtM7+Yn5Ts2/bxiNWgkwmZjEv1tvat3p//3gBp5CEDDo1kwc9vyiPH/dKrikt1RF3OqI6ezR9ZMlYFVkdnmPvBlN2ufL3HBy1/av7SntaPPbp3uHxHcv5ZLU0YxPcvUaoll+5Y248YnlNsAqYOsmhMTLeTRglZeBY7tYpboGUINspvwh7PWdypiWCwIB3foMqMMLrHX34R8Z4HGg+9ZOM7Mkdiq6o8Ok81oPi5io+8NvdCVb4c3Hr24HtnT8fwY0+C7LB7DNX202gZfnK7dBZHKX1bFTM0IhIkEQ2tbCFKtOIukmt93Bvuu8zTFwJZXXzYB9Qmzjbk9yyeYbimZZh7PBkSnWv0hzlPRWnM2r7FNkPNYtd+rNcproQ8W/VhLE5wJmTV246Aop2RmMPap9X8KhneLH95g/tLs10ONzYRso+qTG0kaM3dmK0j2mkR5HSGXILlQuMOV51FXoIE0/s51VWcmzuLqsbZLLYilttWJ/vV1vuq7QSO8U5OVw0oJciked2iEloCtgbcMZz6IgAx6Lc8qeU3pFSaxlrdtutplRsNssjtHHOpH6qnmYEQUiFvjmIPpgVTOH77BtBamhfSv52jtu/AOa+0xGB/BhZWEOSTqpFbcQsQ/NpxIsclE7L4BbWaqH8V8gXAYcafcDzgA5KgxW2aYr7NKEZDunXJ0w3Z/HiyuIytvVHvEI2MABMkWHpws0CK9fT76twk2Y3mkA39+7ZpWjZYP2SBNGQoCH2nFuSZvYFqu9hArAPOhfe955C2UO0T0pOSFwFMsWa8yIIxtweIPk/OuC4ivb+dogyEWOTIO8SJOBpWu5sWtcS3SfBYniD8oYj8RsRIC0NArIGeX05pDG5Xr+UEO0p2lL5A/+3lhkwlXX+9L4I8mjZbHwC8ZEO+wBn9dH8+FV+5le+2GKpuctBymXR+AEWFU2H48P1zwxXjqNZLcfhcU4qGiow+yhSGEBYmcNNT6kptSgmZpxoJ7Ned8AsenU48GrCvN2p7haQ7bWrro53QNEJyKTy2Akad8AfJWGZWcyKsAKCJr39+RS7jAGr43jtl5h2undpPrNwLToxdyB2tM8sBoJqsKO9E900lqyYb+Jl6o9jv3XCC2qqK9Cd/nkwe128sj4G6X3hmtbspop/A58TDzROq6U/3VYMIZChoLwFJIlb4mI1KR9WRPTxVBIjilA2lLeesefv6u9tKIwo0nqTjvj2qsOEYSvncs+Nhony/vnhxoLDyRgR7iWpDoSAWcBteI86uOnzQFZup9mPDDmRB+CD9Jp/C5UJWKvgLH84ai7li4EgO7e14MW+PYwRhERxbTBk9vVIN81uJjrtNQGQd9lW+2jEbmZ5D2GwJsn7FhaJj3x/f31S4UdNmhFawk2Vgp/IL4SSc5yo+CzbF7eYKcAQLmaz0FBrVhWBRaqfLcoNFZJBDUGoGX2sL/fcIFRJmdU/5XEdAY2ZVPqdg98l7Uiy1MIb77bxhs++1Dngf3Budp7gKWV9Y4dVX60IgniIisPwv1tmUAVmQZ1F4EdtLeMn1YjBlP6NeGmfHr1IQ17DGVeq6B5GZQr0CTS5CEuyXsi6s6u8skLtfe/hNOuwRLEk0bXdIZa6HCs12vV+cZN4Z3FQw1OiH/jat03uVrnOpJgPZOIO8tJJt6lh4tJhdn0Ner+FYrDnLmnhwAaJ73fc4Irt/jcwhHAGH3WdvFKCUTKyWzyUoPMqshc/a9QYR3YbCDKOgfFWxX3NjkpJxfY61LPvEGlP8HOLSuMyYywYMJXJy2Qdui10J+02roxl7vheD5vgGsAW8Vq/+Td4ljzRbc4RgtuYQvZdI096TkcZhxZXlirDVpNq1gBgCAZGqJiVBbugOCFcy5KLfP8/efkN1FI3C0j3g8Rslr0wSv1SmcSSuk613hf0yFmNvIC/7WLtY9w1GSJuDQN+p8OW9LvQa3hhsCj8mYZWrEbpftT47jf0c3HFx7AoioTBMRPDg5U4WDzz9ufCw5HqQ7yKxIXJL2U9C3INMDHEYthH7HIZXsNyOmbTVC34g+wAMIt+zvzhv8bsHXTYgezS/blQabpJpChVXzhF0C8QIMTpprttGm5JFvXffVVsKbxf9w607DsSwTzAMN2XwAJ2DVJaC2mNJ2Mh3VLikWf/tlq+crNnsQO3q+l0PmQZ9/q30gQXQgLy7ZPlVlSChXvzu4mIMsrNMmQ7C3n1r2Nhsg9WQbp5979YBw9PrsVsG7wXuUAO9noa/rolEJ1Sd5J64+BWw/UjBZDaOsDLQbVJwGpu0OQM8BgkahnJHM36yBSYdeFwH7r6bf37tybOF+rOyhaZPRwQT1T/CYDrYUvQtqF3NcH7g3sselBsepmzr4id0BVrD0Qxmy0kIAl/qnYLmzjx9UpT12g2mEmR4aAvR3cuZIcn6hMD5fN8JJHpWWnENvG6ysgSYITpfYGR65yvnKvTqX1IjmVu+tLOBXLUDXm26nXpvq6h8OYd95xkohXjTZFFhW6nZ8jWdCVpTn+SBdGGKHv5gOj8Kf8fGngYXazDoo4NrGanT996CvyCTfuQK0tkYt8q2PCOX18AiLHZT10TaDyumlLOD+uKLMRaTeG1/LSSWc5KEx/yXy81eoH1Xl97/tFX3A+mfkZ4UcoDui/56CmWtI5XRUZ7A5eiAnhZDluV1rp59eVKVmXND/AjqfwJUKV7mUQbovqtK/wm9KbkTSvgk0XOT7r4IZP27r/7UNlUcdiPWNRmUzkI+b3YCZevqBf+ky63Y1N7YUqjBz1CjQXpUkoAA1JM0VrSg+7HRLW5O+ATSoYfGGn2by4ttFgO1cn/h9IKPz6wBhyEE5n3RA6H7f/Pj3jKKd/q2q+IawnwBTuz7Ki6pTSV6Goxdbhr0gQtdgLWdI5l7aqATixbkn/zJrqTRzMR2mHdQ4x8MSzIjiEMMcBpFb9F6YCWWETfJQdMfB6gPATgPofEfxkx0/g+mazPocdIOl5SsKfmJ7wuFLqPERufdepWF3df3QxP/7kMtGYX/3E7XUr5cFKV8gebA8YEgfwGPpL0ZoW7/nxn9xEMjdy0K8c1Ek8L+bzn7R2TyBi3oGOopAU7whO1MREFWfKFZW4CRBpIvLgLNYGsbot7HbhXd5wqCDYzUv/VZZDFqfWITnIpSD47P22R7grre09elxiw8B4NMd8DYi5/WWTqzyaSAQFSrrRbiX/sreS4L+x5UGG47OYAMT3pjEVFnz0vHD9ExqlNmKRabo/V+0y0bcnzSWP/i+cueVLiw17U0aWF7crDOj3cnM/lq3JT8KM2QwrOTJVgQftBcDO38ADNfox1WeyBXPZnVb0OMdjO6kXAj+azVKLe1PHFJfnISkX79ZZMgAAE+opxHYIFCY3kxeO4FJ01FPeh0wBCqQSbUttjHK4MyN4lkuuHDKZvShkRG2pVwZvjgj90dO8IjOPSzrtuFCXdG9E7oXuHus1qmPu4HZDc4KcqTQDKbTU7HEnO+LyHGq/VGGn5UQwQ8fp3b5+9RWKgCTYbfdSAslKlUtSuxvviH8Anhi7qmfesRrCDQisTQxRDcgiXbEA6CaC6no8CxU6ACHcDHc49QaspVNfYulecTDqLPa2GkILHARg/ySAZZlv6ngF6Drvkas8T3PyoloQBEVlQUeSs4P2tvInqJbdC51ze9GpQybCevrF12h9+J5tGT+/lHSLfEGxaXEURnax8uAbG30xhLPgUU4/5XdMcXFpbevWP4D0gOwc+edGe/lBomNIZkw7sOjQsvI/9FKY7BUTgz1VXjbe0pjIKGZPXXvYD4KojCscCTQAJ6j/QR2vb0Wp+uLPhxdjy4utJhkI4gYSkHvNX0aG3Bdkuv1zQUI43goB1BBuAADwRefh46FBkveRjjYdurs01XQ4ZO1km1/n918+8AiksAAAAAEf4Il3Pwjf/8WCrS3AB56yEJbcFtTqxJdLJTWD2+LW1Vy3elvlXYeC/jjIXcEmlpvRjzrNSKwULaF7ELCXQs6qAJjSFuoqld389QdN1u0Tf/yyeDbeMmKL8fcslYAAvUCy1HD2906f/tP5DL+L35aIuTbNf1qqCI8N9PeQPuR8hYQGhJh2g2k1D/hBcMvIzrXOrhzQ7Oqr2iAtTL6L0L/yP9v/3M0WVEa6XR9IhMPCnKsQiArexf+4RwlnzSRB/Ujy7dleUNobW4u9bfYP8sfhx9M2VoJgP8y52Hpit7sLe9/a+WNAUlo3MGct4LLMGkBCKwdDm8rwNeDpkxWiV6q5l11fkHZOwU2VgU4Tb5JPvQKgfySJadECoEOjsk2pR/0uEtwAOksw4nXx2Q8SEvp29zhxQ2HShlg7dUVOqiO/4b68PChIbbEHe2dMOWyU0omfS1DYL8nqjTYOVn5oK4+7YneFc9XlG+eaf+DU3QjcyFVZ/GZfBE+mCtDbpNEqagbJQ8R8sKYm7qKxRIEdw7ekKatNAk2WS/atXDdez/NQFgnilsCntRonk7hp+LYgKTDr9Vbp/r0d1VAjcCw9v/19k+ow38esH+y9WQw6eHFJIm7bKd1H7HAWpKheUr50npFwFlgcZeikcMgpVPbt9t1H4Vpk5NdBhAyIoHKpzEey4I5P92pTzxNRMPH3+44Pt7MTe8J74lompviiVE2Hhqh2Mc8ZoDr4YNsmTE73DYPqDwUlNEJwx7qbrE/6yGef51taaaNrMRFAGue0ZyIQ98x3iqF/e0fnMts0xxbu4VbpIYPYUnLJ1au14dpRRgDPTCNDkt9ahXga7MtdptumiqZwL5KeD+TwhfAA9frnR2scZf/az6mJZY1o8zN2AdU4Y1Sd0TRpBQT5sxj5PjPnhQDuWhSYVov0HXkku/9hhRO+dlW3OVmHEafeKft7QlBte3khxgDq34/H30xSMtHEA7/0+SRZ0ETyhqSZ7/XYrObSI1P4LpSuV6FUFCdvhsfEJ08c0QDJDu2s0ZOO1gbR85j1UmFb0Yzex0vIic4GlDP8H4Kls6sBfl2ns2IETMxV2HotceI8ZKCckV9fDXgBEBagLmMNdciSkJdqdAAeScqNFKY+aL8L8NOqiy0FjEu1snNK0W+Gwc/JNCg7+zwGXvC07IKJ/OG286lTpP8k7nuNTGsj/kcWs7darUhm4A56t1WLZ50OWRqiqsLKMZ+cXkvS5f1qTvr9VVuuO1N0cukwkASy8gAPeBD9+zPwbnGYfhUVPQMrOxDE+h+92JEhZP5EV2zG+8h5UNKCUsbkx+PIo9FMcNDLdCVNxPgZFlWiG0WXZRbd81RonTZbnB2S9wHc2JpVeB+tVl2Ah0yKAT05htde357iD96ZPkGQt2G6aF94lnAMbLw/pKuWB1QPl2feUhSGjkB/HdZJFmENIAVRRtTXzQABG5jg1WH4xszaujT7mZ4xdvQEng1Ou0d5TyHsPQCK7M/SOV4JiAsrelcWXv4sMZ8nlDpeeThLAM5et87I5d72DKRSXHvEYbjeAdDJrbQTJyrJD8+Jb9IGvPjVb5iniJB9NmzwU6LKROSG3v/IwXSV+/6cdjFwzsWWP9d+bSLTtfqfFh1emVqrgyJa+q5ppNHNSURjt/m1YbFK89o4CcRFjHsoOfqEoc1EdhD7OkLnFEEPLef+EGBgQclb7L36GB7+tUxU0LRIUuOL5/X65RJ/gf+LN14QUzY9iztM0mXfyPWsg9p3GI/whE0BR5HpXdM4ljPI1EfUixOboPmnrzuTE31/snvks4UO4WWvn61XlSFN/t5RTUCAoOkNrbsTRtHA9go2reoKQnNEcviSVGo74vHp7bz9W3t1NTZBkTlU53FzA3iz0HGX8C81iZOdV0JhbH8wc1wnQmGnQNlq7x2vHLquPDv++9pV+tEv/FnhHAYUljHQM/Pja2OEwp11dM5hUpKDRZli4WC3hPgYqdVN7ShxzgD3Lmbv/cmFp//USl53WcbX+Vzgz30Fyh2t8l+Ic9/XCtaFx4tOaKhHIqWT8QqjSkCF6kRP1dXWlb+/dU8Bix3cqUWF03TZcwA2qTYUPddQH+PiKS+Dak0sedGEtgRtcS+zTw4R6QMDO67Yyy0aqtpp3R1OB790zPFy83+M+L0DIX0OXkvL3B6eZsWNQLO1YE+SnIthbQIRticoRHxNIqSrMAa10qKc2PDEwcKqTdZ7x5k/ek5Yxa9HiBGocGo3Rt9pn2yD/tiaCkN3S5eYW1vRaLNn90gzrJOdADXSixwxWRRwLP+Zi7EMoZsMVqHMXlWD1z0b4aB9WrDu87RvWHi1lqM0pmoOIEfik2BAt+V27AaUXDBvE29OTi0htc+NDhOFwhyaVgVHTvxAONgIpwx4j6FrrafL4deeRg5M6D2wr40r84eImapy427ikWMvBXQsRx0IruN4+Qf7ZufDjkWFGKu+qAQhY7VjtVuUPvFI5H1/WLUvzcE9tMtKdK7FtO6jmesNeHxS9qxJi2YHXwjKh0KNbj4TFr/eZSJABSTbfcMJi3rn0Bybeht9kt5SAYwJRzIRqgetuztvmFntcXqWJ4d5/n+z8jwvG+C9DJ7BXEtTkFwcPqQPfE9sEiUi5cx5XDlHpu4d9yLXQvinzLpJbByubvE0v4mujJAcImK0sXo/3qDQK9vEj1T7XsXBREDcwsQgJsXfVgcXQWoo7hRNGeZ32LTet3hMF/RkpmJ2WTEkfDVn8zi2+bvJWSLDy4Pq6Qm6v4UFyI/pQpFRffgbYqleKLC8UExbl1sF7G+m3V1bC0nkafRjlaG28/Z/LcNy4asErKek7ieXEj4PrdVexeK/O2yAtyqD0aYZuP8EEEot5jwcPxwx1EYJAAAAAAAAAAAAAAAAAAAAAAAAAAAAAAAAAEVYSUZ+AAAARXhpZgAASUkqAAgAAAAFABIBAwABAAAAAQAAABoBBQABAAAASgAAABsBBQABAAAAUgAAACgBAwABAAAAAgAAAGmHBAABAAAAWgAAAAAAAABIAAAAAQAAAEgAAAABAAAAAgACoAQAAQAAAAAEAAADoAQAAQAAAAADAAAAAAAA;" vertex="1" parent="1">
          <mxGeometry x="155.85" y="530" width="166.67" height="125" as="geometry" />
        </mxCell>
      </root>
    </mxGraphModel>
  </diagram>
</mxfile>
